<svg xmlns="http://www.w3.org/2000/svg" viewBox="0 0 192 176">
    <g fill="none" fill-rule="evenodd">
        <path fill="#006FB9" d="M182.105 87.883c0 47.61-38.641 86.206-86.306 86.206-47.666 0-86.307-38.597-86.307-86.206 0-47.61 38.64-86.206 86.307-86.206 47.665 0 86.306 38.596 86.306 86.206"/>
        <path stroke="#FEFEFE" stroke-width="3" d="M182.105 87.883c0 47.61-38.641 86.206-86.306 86.206-47.666 0-86.307-38.597-86.307-86.206 0-47.61 38.64-86.206 86.307-86.206 47.665 0 86.306 38.596 86.306 86.206z"/>
        <path fill="#231F20" d="M9.555 91.016c1.652 46.158 39.628 83.073 86.243 83.073 46.615 0 84.592-36.915 86.245-83.073H9.555z"/>
        <path stroke="#FEFEFE" stroke-width="3" d="M9.555 91.016c1.652 46.158 39.628 83.073 86.243 83.073 46.615 0 84.592-36.915 86.245-83.073H9.555z"/>
        <path fill="#FEFEFE" d="M159.537 87.431c0 35.16-28.537 63.664-63.739 63.664-35.2 0-63.737-28.504-63.737-63.664s28.536-63.663 63.737-63.663c35.202 0 63.739 28.503 63.739 63.663z"/>
        <path fill="#231F20" d="M75.901 110.242a3.823 3.823 0 0 0-1.76-1.396 6.151 6.151 0 0 0-2.317-.443c-.482 0-.948.055-1.397.164-.45.11-.855.285-1.217.525a2.757 2.757 0 0 0-.871.936c-.22.384-.329.838-.329 1.363 0 .788.274 1.391.822 1.807.548.416 1.227.777 2.038 1.083.811.308 1.699.603 2.664.887.964.285 1.852.679 2.663 1.183a6.591 6.591 0 0 1 2.039 2.003c.547.832.821 1.937.821 3.317 0 1.248-.23 2.337-.69 3.268a6.655 6.655 0 0 1-1.858 2.315c-.778.613-1.682 1.072-2.712 1.379-1.03.306-2.116.46-3.255.46-1.447 0-2.84-.242-4.176-.723-1.337-.48-2.488-1.291-3.452-2.43l3.123-3.021a5.225 5.225 0 0 0 1.99 1.79 5.6 5.6 0 0 0 2.613.64 5.49 5.49 0 0 0 1.447-.197c.482-.132.92-.328 1.315-.591.395-.263.712-.597.954-1.002.24-.405.362-.87.362-1.396 0-.854-.275-1.51-.822-1.97-.549-.46-1.229-.849-2.04-1.166a32.88 32.88 0 0 0-2.663-.903 11.186 11.186 0 0 1-2.662-1.166 6.469 6.469 0 0 1-2.04-1.97c-.547-.822-.821-1.922-.821-3.301 0-1.204.247-2.244.74-3.12a6.764 6.764 0 0 1 1.94-2.184 8.483 8.483 0 0 1 2.745-1.297 11.827 11.827 0 0 1 3.156-.427c1.228 0 2.417.186 3.568.558a8.282 8.282 0 0 1 3.107 1.84l-3.025 3.185zM86.192 116.712c0 1.248.192 2.397.575 3.448.384 1.051.926 1.96 1.628 2.726a7.569 7.569 0 0 0 2.515 1.806c.976.438 2.066.657 3.272.657 1.205 0 2.301-.219 3.288-.657a7.53 7.53 0 0 0 2.532-1.806c.7-.767 1.243-1.675 1.627-2.726.383-1.05.576-2.2.576-3.448 0-1.16-.193-2.244-.576-3.252a8.069 8.069 0 0 0-1.627-2.644 7.45 7.45 0 0 0-2.532-1.773c-.987-.427-2.083-.64-3.288-.64-1.206 0-2.296.213-3.272.64a7.486 7.486 0 0 0-2.515 1.773 8.054 8.054 0 0 0-1.628 2.644 9.059 9.059 0 0 0-.575 3.252m-4.34.262c0-1.86.307-3.552.92-5.074.614-1.52 1.464-2.818 2.549-3.891s2.378-1.9 3.88-2.48c1.5-.58 3.15-.87 4.948-.87 1.82-.022 3.485.246 4.998.805 1.513.558 2.816 1.374 3.912 2.446 1.096 1.073 1.951 2.365 2.565 3.875.613 1.511.92 3.198.92 5.058 0 1.817-.307 3.47-.92 4.959-.614 1.489-1.469 2.77-2.565 3.843-1.096 1.072-2.4 1.91-3.912 2.512-1.513.601-3.179.914-4.998.936-1.798 0-3.447-.29-4.948-.87-1.502-.58-2.795-1.402-3.88-2.464-1.085-1.061-1.935-2.337-2.548-3.826-.614-1.488-.92-3.142-.92-4.959M126.206 110.702c-.855-.92-1.683-1.532-2.482-1.84a6.717 6.717 0 0 0-2.417-.46c-1.206 0-2.296.214-3.272.641a7.484 7.484 0 0 0-2.515 1.773 8.056 8.056 0 0 0-1.627 2.644 9.05 9.05 0 0 0-.575 3.251c0 1.248.19 2.398.575 3.449.383 1.05.926 1.96 1.627 2.726a7.571 7.571 0 0 0 2.515 1.806c.976.438 2.066.657 3.272.657.942 0 1.858-.225 2.746-.673.887-.449 1.714-1.166 2.482-2.152l3.42 2.43c-1.053 1.446-2.335 2.497-3.847 3.153a11.997 11.997 0 0 1-4.834.986c-1.797 0-3.447-.29-4.948-.87-1.501-.58-2.795-1.402-3.88-2.464-1.085-1.061-1.935-2.337-2.548-3.826-.614-1.489-.92-3.141-.92-4.959 0-1.86.306-3.552.92-5.074.613-1.52 1.463-2.818 2.548-3.891s2.379-1.9 3.88-2.48c1.501-.58 3.15-.87 4.948-.87 1.578 0 3.042.279 4.39.838 1.348.557 2.603 1.505 3.764 2.84l-3.222 2.365zM65.788 136.355c-.563 0-1.009.078-1.338.235-.33.158-.496.416-.496.776 0 .33.111.563.333.702.22.139.496.208.826.208.255 0 .478-.043.67-.13a1.409 1.409 0 0 0 .77-.842c.067-.191.105-.395.113-.613v-.336h-.878zm-2.542-2.057c.27-.277.59-.48.962-.612.37-.13.748-.196 1.13-.196.78 0 1.343.183 1.687.55.345.368.518.925.518 1.674v2.258a6.076 6.076 0 0 0 .08.91h-.845a1.819 1.819 0 0 1-.05-.398 14.018 14.018 0 0 1-.006-.388h-.023c-.173.27-.403.49-.692.663-.288.172-.635.258-1.04.258-.27 0-.523-.034-.76-.101a1.893 1.893 0 0 1-.618-.297 1.396 1.396 0 0 1-.58-1.163c.001-.435.113-.776.338-1.023.225-.247.504-.43.838-.55.334-.12.694-.195 1.08-.225.386-.03.74-.045 1.063-.045h.338v-.157c0-.382-.115-.67-.343-.865-.23-.195-.55-.293-.962-.293-.286 0-.565.047-.838.141a2.007 2.007 0 0 0-.726.433l-.55-.574zM69.14 138.882h.877v-5.257h-.877v5.257zm-.202-7.314c0-.172.061-.322.185-.45a.611.611 0 0 1 .456-.19.61.61 0 0 1 .455.19.624.624 0 0 1 .186.45c0 .188-.06.341-.18.46a.625.625 0 0 1-.46.18.623.623 0 0 1-.462-.18.621.621 0 0 1-.18-.46zM75.417 134.939a1.783 1.783 0 0 0-.608-.489 1.688 1.688 0 0 0-.72-.152c-.292 0-.55.051-.776.152-.225.102-.41.242-.557.422-.146.18-.257.387-.332.623a2.49 2.49 0 0 0-.112.758c0 .27.043.523.13.759.085.235.205.444.36.624.153.179.338.32.556.42.218.102.461.152.73.152.578 0 1.025-.217 1.34-.651l.652.618a2.295 2.295 0 0 1-.9.64 2.967 2.967 0 0 1-1.091.202c-.404 0-.776-.067-1.113-.202a2.412 2.412 0 0 1-.86-.573 2.628 2.628 0 0 1-.552-.876 3.045 3.045 0 0 1-.197-1.113c0-.397.066-.764.197-1.1a2.54 2.54 0 0 1 1.418-1.455 2.861 2.861 0 0 1 1.107-.208c.39 0 .76.067 1.108.202.349.134.654.344.917.629l-.697.618zM77.835 136.253c0 .277.043.534.129.77a1.785 1.785 0 0 0 .967 1.033c.229.102.486.152.77.152.286 0 .543-.05.771-.152.229-.1.426-.239.591-.415a1.79 1.79 0 0 0 .377-.618c.086-.236.13-.493.13-.77 0-.276-.044-.534-.13-.77a1.799 1.799 0 0 0-.377-.617 1.8 1.8 0 0 0-.59-.416 1.885 1.885 0 0 0-.771-.152c-.285 0-.542.051-.77.152-.23.101-.426.24-.591.416-.165.176-.29.382-.377.618-.086.235-.13.493-.13.77zm-.877-2.628h.877v.763h.022c.24-.284.52-.505.838-.663.319-.157.67-.235 1.052-.235.413 0 .789.069 1.13.207a2.528 2.528 0 0 1 1.434 1.455c.135.338.203.705.203 1.101 0 .397-.068.764-.203 1.101-.134.338-.32.63-.556.877a2.588 2.588 0 0 1-1.873.786c-.473 0-.887-.103-1.243-.309-.356-.206-.617-.458-.782-.758h-.022v3.494h-.877v-7.82zM86.26 136.355c-.563 0-1.009.078-1.339.235-.33.158-.495.416-.495.776 0 .33.11.563.332.702.221.139.497.208.826.208.255 0 .479-.043.67-.13a1.409 1.409 0 0 0 .77-.842c.068-.191.105-.395.113-.613v-.336h-.877zm-2.542-2.057c.27-.277.59-.48.961-.612.371-.13.748-.196 1.13-.196.78 0 1.343.183 1.688.55.345.368.517.925.517 1.674v2.258a6.076 6.076 0 0 0 .08.91h-.844a1.819 1.819 0 0 1-.051-.398 14.018 14.018 0 0 1-.006-.388h-.022c-.173.27-.404.49-.692.663-.289.172-.636.258-1.04.258-.27 0-.524-.034-.76-.101a1.893 1.893 0 0 1-.618-.297 1.396 1.396 0 0 1-.58-1.163c0-.435.113-.776.338-1.023.225-.247.504-.43.838-.55.333-.12.693-.195 1.08-.225.386-.03.74-.045 1.063-.045h.337v-.157c0-.382-.115-.67-.343-.865-.229-.195-.55-.293-.962-.293-.285 0-.564.047-.838.141a2.007 2.007 0 0 0-.725.433l-.551-.574zM90.264 137.602c.187 0 .347.065.478.196.131.132.197.29.197.478 0 .187-.07.346-.208.477a.663.663 0 0 1-.467.197.663.663 0 0 1-.467-.197.633.633 0 0 1-.208-.477c0-.187.066-.346.197-.478a.652.652 0 0 1 .478-.196M93.211 136.253c0 .277.043.534.13.77a1.771 1.771 0 0 0 .967 1.033c.228.102.485.152.77.152.285 0 .542-.05.77-.152a1.789 1.789 0 0 0 .968-1.033c.086-.236.13-.493.13-.77 0-.276-.044-.534-.13-.77a1.793 1.793 0 0 0-.376-.617 1.795 1.795 0 0 0-.591-.416 1.885 1.885 0 0 0-.77-.152c-.286 0-.543.051-.771.152a1.787 1.787 0 0 0-.967 1.034c-.087.235-.13.493-.13.77m-.945 0c0-.412.072-.787.214-1.124.142-.337.337-.627.585-.87a2.59 2.59 0 0 1 .888-.568 3.06 3.06 0 0 1 1.125-.202c.405 0 .78.067 1.125.202a2.6 2.6 0 0 1 .89.567c.246.244.441.534.584.87.142.338.213.713.213 1.124 0 .412-.071.787-.213 1.124a2.665 2.665 0 0 1-.585.87 2.608 2.608 0 0 1-.889.568c-.345.135-.72.202-1.125.202a3.06 3.06 0 0 1-1.125-.202 2.597 2.597 0 0 1-.888-.567 2.652 2.652 0 0 1-.585-.871 2.858 2.858 0 0 1-.214-1.124M99.161 134.871c0-.24-.008-.464-.022-.673-.015-.21-.023-.401-.023-.574h.833c0 .143.003.285.011.427.007.143.011.289.011.438h.023c.06-.127.144-.25.253-.37a1.82 1.82 0 0 1 .388-.32 2.094 2.094 0 0 1 1.293-.298c.06.007.12.022.18.044l-.056.888a1.644 1.644 0 0 0-.472-.067c-.54 0-.932.174-1.176.522-.243.349-.365.826-.365 1.433v2.561h-.878v-4.01zM103.47 136.253a1.88 1.88 0 0 0 .545 1.343c.169.169.366.302.59.399.226.097.465.146.72.146.3 0 .566-.053.8-.157.231-.105.428-.246.59-.422.16-.175.283-.378.365-.606.082-.229.124-.47.124-.725 0-.285-.045-.545-.135-.78a1.8 1.8 0 0 0-.383-.613 1.682 1.682 0 0 0-.596-.4 2.022 2.022 0 0 0-.765-.14c-.277 0-.53.051-.759.152-.229.101-.424.24-.585.416a1.903 1.903 0 0 0-.377.618c-.09.235-.135.493-.135.77zm4.611 2.394c0 .958-.246 1.686-.736 2.185-.492.497-1.202.747-2.132.747-.517 0-.984-.075-1.4-.225-.416-.15-.812-.409-1.187-.775l.63-.72c.277.3.572.527.883.68a2.4 2.4 0 0 0 1.074.23c.39 0 .714-.057.973-.173.258-.116.463-.273.613-.472.15-.199.255-.425.315-.68.06-.254.09-.52.09-.797v-.675h-.023c-.21.338-.483.585-.821.742a2.42 2.42 0 0 1-1.035.236c-.412 0-.791-.068-1.135-.203a2.638 2.638 0 0 1-.89-.561 2.486 2.486 0 0 1-.573-.854 2.825 2.825 0 0 1-.202-1.079c0-.426.067-.812.202-1.157.135-.344.324-.635.568-.87.243-.237.538-.418.883-.545.345-.128.727-.191 1.147-.191.18 0 .36.02.54.062.18.04.355.104.523.19.169.087.32.195.456.326.135.131.248.283.337.455h.023v-.898h.877v5.022zM109.52 139.365l-.708-.28 3.386-8.629.708.27zM113.795 137.5c.173.218.362.39.568.517.207.128.467.191.782.191.135 0 .272-.015.41-.044.14-.03.265-.08.377-.147a.831.831 0 0 0 .27-.252.642.642 0 0 0 .102-.366.592.592 0 0 0-.096-.348.84.84 0 0 0-.253-.23 1.438 1.438 0 0 0-.36-.152 6.926 6.926 0 0 0-.416-.1 8.907 8.907 0 0 1-.709-.181 2.303 2.303 0 0 1-.59-.264 1.241 1.241 0 0 1-.405-.421c-.102-.172-.152-.393-.152-.663 0-.255.056-.48.169-.674.112-.195.262-.356.45-.483.187-.128.397-.225.63-.292.232-.068.472-.101.72-.101.374 0 .721.074 1.04.224.318.15.568.393.748.73l-.732.483a1.361 1.361 0 0 0-.443-.454 1.229 1.229 0 0 0-.67-.175c-.12 0-.242.015-.366.045-.123.03-.234.075-.33.135a.792.792 0 0 0-.244.23.56.56 0 0 0-.095.32c0 .113.036.208.107.287.071.079.169.148.293.208.123.06.266.112.427.157a5.3 5.3 0 0 0 .5.113c.233.044.454.103.665.174.21.071.393.167.55.286.158.12.282.27.372.45.09.18.135.4.135.663 0 .3-.06.554-.18.764-.12.21-.28.38-.478.51-.2.132-.424.227-.676.287a3.3 3.3 0 0 1-.77.09c-.45 0-.838-.069-1.164-.208-.326-.138-.62-.395-.883-.77l.697-.538zM119.025 136.253c0 .277.044.534.13.77a1.784 1.784 0 0 0 .968 1.034c.228.1.485.151.77.151.285 0 .541-.05.77-.152a1.791 1.791 0 0 0 .968-1.033c.086-.236.129-.493.129-.77 0-.276-.043-.534-.13-.77a1.8 1.8 0 0 0-.376-.617 1.798 1.798 0 0 0-.59-.416 1.888 1.888 0 0 0-.771-.152c-.285 0-.542.051-.77.152a1.79 1.79 0 0 0-.968 1.034c-.086.235-.13.493-.13.77m-.945 0c0-.412.071-.787.214-1.124.142-.337.338-.627.585-.87.248-.244.544-.434.89-.568.343-.135.719-.202 1.124-.202.404 0 .78.067 1.125.202.344.134.64.324.888.567.248.244.442.534.585.87.142.338.213.713.213 1.124 0 .412-.071.787-.213 1.124a2.66 2.66 0 0 1-.585.87 2.601 2.601 0 0 1-.888.568c-.346.135-.72.202-1.125.202s-.78-.067-1.125-.202a2.603 2.603 0 0 1-.889-.567 2.652 2.652 0 0 1-.585-.871 2.85 2.85 0 0 1-.214-1.124M128.721 134.939a1.78 1.78 0 0 0-.607-.489 1.686 1.686 0 0 0-.72-.152c-.293 0-.551.051-.776.152-.225.102-.41.242-.557.422a1.88 1.88 0 0 0-.332.623 2.49 2.49 0 0 0-.112.758c0 .27.043.523.129.759.086.235.206.444.36.624.154.179.34.32.557.42.217.102.461.152.73.152.578 0 1.024-.217 1.34-.651l.652.618a2.29 2.29 0 0 1-.9.64 2.97 2.97 0 0 1-1.091.202c-.405 0-.776-.067-1.114-.202a2.41 2.41 0 0 1-.86-.573 2.634 2.634 0 0 1-.551-.876 3.045 3.045 0 0 1-.197-1.113c0-.397.066-.764.197-1.1.13-.337.317-.63.557-.877.24-.247.526-.44.86-.579a2.863 2.863 0 0 1 1.108-.207c.39 0 .759.067 1.108.202.349.134.654.344.917.629l-.698.618z"/>
        <path fill="#006FB9" d="M72.508 73.01h3.265V48.805h-3.265v24.207zM54.313 62.253l3.647-7.237 3.628 7.237h-7.275zm3.32-13.953L45.256 72.997h3.645l3.884-7.713h10.27l3.922 7.713h3.55L57.981 47.605l-.348.694zM121.306 57.41c-.407.586-.955 1.004-1.681 1.272-.708.264-1.93.415-3.612.414l-3.837-.044V51.87h4.023c1.662-.002 2.85.143 3.5.39.67.252 1.197.659 1.608 1.249.408.594.608 1.225.61 1.935a3.37 3.37 0 0 1-.611 1.967zm2.542 2.142c.95-1.09 1.421-2.486 1.418-4.117.003-1.624-.482-3.02-1.453-4.118-.958-1.087-2.204-1.81-3.697-2.153-1.064-.247-2.985-.358-5.849-.36h-5.355V73.01h3.264V62.114h1.394c3.111-.002 5.23-.125 6.426-.393 1.611-.363 2.91-1.086 3.852-2.17zm-22.08 7.265c-2.225 2.468-4.937 3.68-8.237 3.686-3.01-.004-5.453-.912-7.411-2.733-1.954-1.829-2.915-4.058-2.92-6.792.002-1.808.436-3.414 1.306-4.85.87-1.436 2.091-2.577 3.686-3.436 1.592-.858 3.316-1.285 5.19-1.287 1.722 0 3.288.33 4.71.982 1.427.653 2.643 1.608 3.661 2.877l.232.29 2.527-1.855-.236-.312c-1.202-1.593-2.75-2.836-4.63-3.716-1.88-.883-3.982-1.322-6.295-1.32-3.827-.004-7.06 1.191-9.62 3.577-2.562 2.376-3.862 5.358-3.858 8.845-.003 3.305 1.063 6.169 3.181 8.513 2.523 2.785 5.996 4.177 10.306 4.177h.022c2.28 0 4.355-.41 6.217-1.238 1.859-.826 3.421-2.002 4.668-3.52l.26-.315L102 66.558l-.233.26zm28.607-4.565l3.646-7.237 3.628 7.237h-7.274zm3.667-14.647l-.348.693-12.375 24.698h3.643l3.885-7.71h10.27l3.922 7.71h3.55l-12.547-25.391z"/>
        <path fill="#FEFEFE" d="M38.414 126.946l3.291 4.764-1.145.79-2.384-3.451-1.867 1.287 2.247 3.253-1.145.789-2.247-3.253-2.952 2.036-.908-1.315zM38.564 136.849a1.825 1.825 0 0 0-.421.52c-.109.198-.174.41-.195.634a1.757 1.757 0 0 0 .448 1.344 1.761 1.761 0 0 0 1.262.645c.226.012.444-.02.658-.096.212-.077.404-.189.578-.337.173-.148.313-.322.421-.52.109-.199.173-.41.195-.635a1.784 1.784 0 0 0-.072-.681 1.818 1.818 0 0 0-.376-.662 1.77 1.77 0 0 0-1.263-.646 1.657 1.657 0 0 0-.657.097c-.213.076-.405.189-.578.337m-.991-1.153a2.948 2.948 0 0 1 2.322-.723c.396.05.782.18 1.157.393.376.212.712.491 1.01.837.297.346.522.72.676 1.123.153.403.224.804.213 1.203a2.95 2.95 0 0 1-.277 1.164 2.99 2.99 0 0 1-.79 1.019 2.95 2.95 0 0 1-2.322.723 3.123 3.123 0 0 1-1.156-.393 3.788 3.788 0 0 1-1.01-.838 3.753 3.753 0 0 1-.675-1.123 3.11 3.11 0 0 1-.214-1.202 2.942 2.942 0 0 1 1.066-2.183M44.905 139.546l1.09 1.062-.648.662.018.018c.36-.126.717-.147 1.071-.062a2.06 2.06 0 0 1 1.146.759c.052.073.103.151.152.234l-.988 1.011a4.515 4.515 0 0 0-.212-.318 2.221 2.221 0 0 0-.238-.273c-.254-.248-.502-.402-.744-.462a1.539 1.539 0 0 0-.656-.036c-.196.037-.364.1-.505.19-.142.09-.24.163-.297.222l-2.19 2.24-1.089-1.061 4.09-4.186zM48.171 142.86l1.142.886-.562.721.02.016c.276-.135.6-.196.968-.182.37.014.755.176 1.155.487.754.586 1.033 1.26.836 2.023.403-.16.788-.208 1.156-.144.367.064.731.236 1.092.516.32.248.55.51.69.783.141.274.21.554.207.84a2.163 2.163 0 0 1-.195.86 4.045 4.045 0 0 1-.513.843l-2.141 2.752-1.202-.933 2.037-2.616c.11-.142.203-.288.278-.44.075-.153.119-.305.13-.456a.883.883 0 0 0-.087-.445 1.219 1.219 0 0 0-.373-.429 1.291 1.291 0 0 0-.555-.268 1.162 1.162 0 0 0-.53.02c-.17.048-.331.13-.48.246-.148.116-.28.247-.395.395l-1.947 2.5-1.202-.932 2.142-2.751c.225-.29.34-.568.345-.836.006-.269-.138-.517-.432-.745a1.5 1.5 0 0 0-.58-.296 1.225 1.225 0 0 0-.543-.005 1.294 1.294 0 0 0-.487.224c-.15.11-.285.242-.405.396l-1.962 2.52-1.201-.933 3.594-4.617zM59.152 153.408c.212-.374.266-.737.161-1.088-.105-.351-.365-.65-.78-.896-.392-.233-.767-.31-1.124-.23-.358.08-.671.287-.938.62l2.68 1.594zm-3.243-.652c-.181.403-.203.787-.066 1.152.136.365.39.657.76.878.327.194.64.293.938.295.298.003.59-.044.874-.14l.531 1.238c-.521.182-1.017.237-1.486.166-.47-.071-.911-.23-1.325-.476a3.775 3.775 0 0 1-1-.85 3.12 3.12 0 0 1-.585-1.072 2.94 2.94 0 0 1 .313-2.408 2.95 2.95 0 0 1 1.97-1.424c.393-.079.8-.078 1.224.004.424.082.831.24 1.223.473.363.215.66.475.888.775.229.302.381.632.459.99.076.357.074.74-.008 1.15a4.07 4.07 0 0 1-.516 1.275l-.206.346-3.988-2.372zM62.68 152.657l1.367.667-.407.832.023.012a1.86 1.86 0 0 1 .997-.396 2.058 2.058 0 0 1 1.326.362c.073.054.146.112.219.174l-.62 1.27c-.1-.084-.201-.163-.302-.235a2.244 2.244 0 0 0-.312-.186c-.319-.155-.603-.223-.852-.205a1.55 1.55 0 0 0-.634.173 1.424 1.424 0 0 0-.42.338c-.105.13-.176.23-.211.303l-1.376 2.814-1.367-.666 2.568-5.257zM68.339 151.603l1.402.589-3.572 8.493-1.403-.589zM69.087 155.63l1.583.542.29 4.389.023.008 2.757-3.345 1.5.514-5.032 5.786a4.42 4.42 0 0 1-.576.57 2.126 2.126 0 0 1-.609.345 1.783 1.783 0 0 1-.697.096 3.183 3.183 0 0 1-.855-.184 4.673 4.673 0 0 1-1.056-.516l.608-1.183c.099.076.205.15.32.219.115.069.236.126.364.17.175.06.329.096.46.106.13.01.249-.003.355-.04a.835.835 0 0 0 .297-.181 5.56 5.56 0 0 0 .309-.313l.501-.562-.542-6.422zM83.94 158.709a1.465 1.465 0 0 0-.57-.635 2.44 2.44 0 0 0-1.388-.368 1.5 1.5 0 0 0-.498.105 1.04 1.04 0 0 0-.394.278.962.962 0 0 0-.22.474c-.054.287.008.527.187.717.18.191.412.372.698.541.286.17.602.341.948.514s.655.38.927.622c.273.242.484.534.635.877.15.342.177.765.082 1.268-.086.455-.248.835-.487 1.142a2.497 2.497 0 0 1-.864.71c-.337.169-.712.271-1.123.309a4.539 4.539 0 0 1-1.265-.065 4.9 4.9 0 0 1-1.533-.562 3.112 3.112 0 0 1-1.14-1.134l1.392-.877c.138.315.348.58.63.794a2.221 2.221 0 0 0 1.508.453c.192-.014.372-.054.54-.122.167-.067.31-.166.43-.296a.964.964 0 0 0 .233-.484c.06-.31 0-.57-.175-.777a2.841 2.841 0 0 0-.692-.57 13.163 13.163 0 0 0-.947-.52 4.403 4.403 0 0 1-.928-.617 2.446 2.446 0 0 1-.637-.864c-.151-.339-.179-.76-.083-1.262.083-.439.248-.8.495-1.085.248-.284.543-.503.887-.657.343-.154.719-.247 1.13-.277.41-.03.818-.006 1.225.07a4.6 4.6 0 0 1 1.313.46c.41.218.761.516 1.05.893l-1.366.945zM90.887 162.98l-1.1-3.608-1.681 3.387 2.781.221zm-1.598-5.482l1.377.11 3.17 8.907-1.82-.144-.678-2.035-3.88-.309-.966 1.904-1.782-.142 4.579-8.29zM99.251 159.554a1.465 1.465 0 0 0-.691-.5 2.465 2.465 0 0 0-1.436-.065 1.497 1.497 0 0 0-.463.208.97.97 0 0 0-.44.865c.008.292.119.513.334.661.216.149.481.276.797.381.315.106.66.207 1.036.302.374.096.72.233 1.038.412a2.5 2.5 0 0 1 .806.721c.219.304.335.711.349 1.222.012.464-.066.87-.234 1.22s-.4.642-.694.878a3.132 3.132 0 0 1-1.032.539c-.394.124-.81.192-1.25.204a4.897 4.897 0 0 1-1.617-.226 3.099 3.099 0 0 1-1.355-.866l1.175-1.152c.202.279.463.493.784.643a2.227 2.227 0 0 0 1.57.123 1.77 1.77 0 0 0 .502-.232c.149-.102.268-.229.357-.382a.962.962 0 0 0 .126-.521c-.01-.317-.121-.558-.336-.723a2.842 2.842 0 0 0-.798-.411 13.07 13.07 0 0 0-1.036-.308 4.402 4.402 0 0 1-1.038-.405 2.442 2.442 0 0 1-.805-.71c-.22-.3-.337-.704-.35-1.216-.012-.447.073-.835.255-1.165a2.54 2.54 0 0 1 .726-.83 3.345 3.345 0 0 1 1.046-.51 4.737 4.737 0 0 1 2.593-.02c.448.127.853.344 1.217.65l-1.136 1.213zM104.458 157.285l6.006-1.059.234 1.32-2.267 7.8-1.76.31 2.35-7.765-4.321.762zM113.804 159.824c.072.258.176.553.309.882.132.33.298.632.498.904.2.273.44.484.719.633.28.15.602.173.968.07.366-.104.63-.292.79-.564.16-.274.253-.579.281-.916.028-.337.013-.68-.047-1.031a8.971 8.971 0 0 0-.198-.912 8.775 8.775 0 0 0-.309-.882c-.133-.33-.299-.631-.499-.904a2.13 2.13 0 0 0-.718-.634c-.28-.149-.602-.172-.969-.069-.365.104-.629.291-.79.564a2.14 2.14 0 0 0-.281.915c-.028.337-.012.681.047 1.032.06.35.126.655.199.912m-1.464.413c-.186-.657-.29-1.233-.311-1.73a4.649 4.649 0 0 1 .102-1.295 2.9 2.9 0 0 1 .39-.932 2.717 2.717 0 0 1 1.177-1.01 4.19 4.19 0 0 1 .554-.206 4.26 4.26 0 0 1 .58-.113c.225-.029.468-.027.727.005.259.032.528.113.806.241.277.129.55.326.819.592.268.267.523.617.765 1.051.24.435.454.98.64 1.637.185.657.289 1.234.31 1.73.022.496-.013.928-.102 1.294a2.91 2.91 0 0 1-.39.933 2.72 2.72 0 0 1-.56.626c-.205.163-.41.29-.617.384-.206.091-.392.16-.554.206a4.353 4.353 0 0 1-.581.113 2.879 2.879 0 0 1-.726-.005 2.727 2.727 0 0 1-.806-.241 2.922 2.922 0 0 1-.82-.592 4.663 4.663 0 0 1-.764-1.051c-.24-.435-.455-.98-.64-1.637M125.559 154.96a7.54 7.54 0 0 0 .61-.313c.198-.114.368-.245.508-.395.14-.15.232-.32.273-.514.042-.193.002-.42-.116-.677-.106-.23-.24-.39-.404-.485a1.028 1.028 0 0 0-.538-.136c-.193.004-.393.04-.6.107a5.675 5.675 0 0 0-.584.229l-1.257.576.979 2.126 1.129-.518zm-4.11-2.138l2.836-1.3c.39-.18.785-.318 1.183-.416a3.275 3.275 0 0 1 1.139-.087c.362.04.694.165.995.375.302.21.554.537.758.98.262.568.317 1.12.167 1.653-.15.534-.51.98-1.079 1.34l3.76 2.472-1.75.803-3.419-2.454-1.06.486 1.528 3.322-1.452.667-3.606-7.84zM134.26 151.977c-.226-.367-.519-.588-.879-.664-.358-.075-.746.01-1.16.254-.394.232-.64.525-.741.877-.101.352-.07.725.095 1.118l2.685-1.585zm-2.126 2.53c.267.351.594.555.98.61.386.055.765-.027 1.136-.246.327-.194.563-.42.709-.681.145-.26.243-.538.295-.832l1.343.127c-.09.544-.28 1.005-.567 1.382a3.632 3.632 0 0 1-1.053.934 3.795 3.795 0 0 1-1.225.468c-.424.08-.832.08-1.223 0a2.961 2.961 0 0 1-1.1-.476 2.993 2.993 0 0 1-.866-.953 2.993 2.993 0 0 1-.418-1.218 2.935 2.935 0 0 1 .112-1.192c.117-.381.314-.738.589-1.07a3.781 3.781 0 0 1 1-.846c.365-.216.734-.35 1.108-.407a2.497 2.497 0 0 1 1.09.073c.35.103.687.29 1.008.558.32.268.61.622.872 1.063l.205.346-3.995 2.36zM141.015 147.985a1.84 1.84 0 0 0-.49-.457 1.645 1.645 0 0 0-.619-.24 1.773 1.773 0 0 0-1.374.35 1.759 1.759 0 0 0-.735 1.212c-.029.224-.012.444.05.661a1.84 1.84 0 0 0 .785 1.057c.19.123.396.203.619.24a1.77 1.77 0 0 0 1.373-.35 1.768 1.768 0 0 0 .736-1.211 1.646 1.646 0 0 0-.05-.662 1.819 1.819 0 0 0-.295-.6zm-5.799.652l1.161-.86.524.705.02-.015a1.931 1.931 0 0 1 .248-1.155c.202-.352.476-.655.823-.912a3.178 3.178 0 0 1 1.15-.556 2.826 2.826 0 0 1 1.153-.042c.375.067.729.21 1.06.43.331.22.625.502.882.848s.439.71.546 1.097c.107.386.14.766.098 1.141a2.775 2.775 0 0 1-.36 1.079 2.945 2.945 0 0 1-.816.9c-.231.17-.452.298-.662.384-.21.085-.41.142-.6.17a2.321 2.321 0 0 1-.517.026 2.094 2.094 0 0 1-.412-.066l-.03.023 2.1 2.829-1.223.905-5.145-6.93zM144.117 145.409c.155.167.333.3.536.401.202.101.416.158.64.171a1.77 1.77 0 0 0 1.33-.495 1.766 1.766 0 0 0 .6-1.284 1.631 1.631 0 0 0-.122-.652 1.843 1.843 0 0 0-.894-.967 1.664 1.664 0 0 0-.642-.171 1.77 1.77 0 0 0-1.327.496 1.764 1.764 0 0 0-.6 1.284c-.004.225.035.442.12.652.085.21.204.398.36.565m-1.119 1.031a2.942 2.942 0 0 1-.807-2.291 3.11 3.11 0 0 1 .35-1.17 3.78 3.78 0 0 1 .802-1.038 3.8 3.8 0 0 1 1.099-.716 3.127 3.127 0 0 1 1.194-.257 2.953 2.953 0 0 1 2.224.985 3 3 0 0 1 .666 1.102 2.958 2.958 0 0 1-.21 2.36 3.77 3.77 0 0 1-.8 1.037c-.336.31-.702.548-1.099.716a3.118 3.118 0 0 1-1.196.257 2.95 2.95 0 0 1-2.223-.985M146.587 138.98l1.022-1.127.686.622.018-.019a1.863 1.863 0 0 1-.102-1.067 2.055 2.055 0 0 1 .717-1.171c.072-.055.148-.108.229-.161l1.048.95a4.316 4.316 0 0 0-.31.223 2.24 2.24 0 0 0-.266.247c-.238.263-.383.516-.434.76a1.535 1.535 0 0 0-.012.657c.045.194.114.359.209.496.095.138.173.234.233.288l2.323 2.103-1.022 1.126-4.339-3.928zM150.25 136.786l-.98-.769.777-.986-1.333-1.046.94-1.196 1.333 1.048 1.035-1.315.978.768-1.034 1.315 2.014 1.58c.23.181.448.28.653.296.204.015.41-.11.62-.375.084-.106.164-.232.241-.375a.946.946 0 0 0 .125-.385l.968.76a2.013 2.013 0 0 1-.244.557c-.122.2-.237.37-.347.51-.25.319-.488.553-.715.703-.227.15-.454.228-.683.236a1.453 1.453 0 0 1-.702-.164 4.388 4.388 0 0 1-.76-.492l-2.111-1.657-.775.987zM155.726 129.964a1.411 1.411 0 0 0-1.16.657c-.113.169-.183.36-.21.576a.494.494 0 0 0 .232.507c.15.1.302.105.46.017a2.73 2.73 0 0 0 .51-.39c.184-.172.38-.358.588-.56.209-.2.433-.367.674-.501.242-.133.498-.205.77-.217.272-.01.566.09.885.302.29.194.491.424.604.687.112.263.16.539.142.827-.017.288-.085.58-.206.876-.12.296-.267.573-.44.833-.264.393-.56.718-.89.975-.329.258-.723.421-1.18.49l-.196-1.35c.284-.043.544-.121.78-.232.236-.111.444-.3.623-.567.06-.092.114-.193.16-.305.045-.111.072-.226.082-.34a.782.782 0 0 0-.04-.325.486.486 0 0 0-.195-.245.493.493 0 0 0-.51-.05c-.17.078-.349.203-.536.372-.187.17-.381.357-.583.563a3.15 3.15 0 0 1-.654.515 1.644 1.644 0 0 1-.749.23c-.265.016-.553-.08-.864-.288a1.655 1.655 0 0 1-.588-.645 1.792 1.792 0 0 1-.185-.786c-.001-.276.05-.557.154-.843a3.697 3.697 0 0 1 1.248-1.696 1.96 1.96 0 0 1 1.108-.416l.166 1.33zM20.246 70.798l-.004.02 3.206 2.263.643-2.93-3.845.647zm-1.18.146l.175-.801 7.857-1.482-.218.994-1.927.344-.786 3.59 1.604 1.127-.21.963-6.495-4.735zM20.338 65.848l.245-.837 7.063 2.06-.244.837zM24.394 58.613c-.356.105-.66.285-.913.538a2.41 2.41 0 0 0-.561.878 2.536 2.536 0 0 0-.156 1.143c.038.379.145.733.322 1.064.177.33.416.625.716.883.3.257.639.456 1.015.594.404.149.803.222 1.199.22a3.016 3.016 0 0 0 1.106-.207 2.66 2.66 0 0 0 1.532-1.588 2.66 2.66 0 0 0 .168-1.222 2.732 2.732 0 0 0-.397-1.13l.743-.424c.302.465.469.952.502 1.462a3.85 3.85 0 0 1-.255 1.593 3.734 3.734 0 0 1-.783 1.283 3.618 3.618 0 0 1-2.586 1.156 4.088 4.088 0 0 1-1.551-.266 4.137 4.137 0 0 1-1.33-.782 3.677 3.677 0 0 1-.883-1.149 3.672 3.672 0 0 1-.36-1.394 3.69 3.69 0 0 1 .237-1.516c.172-.468.422-.886.75-1.256.329-.37.739-.63 1.23-.781l.255.901zM27.301 56.288l.636-1.331c.187-.394.251-.756.19-1.088-.06-.331-.278-.586-.653-.765-.374-.179-.71-.187-1.007-.025-.295.161-.538.439-.726.833l-.635 1.33 2.195 1.046zm-3.303-.608l.94-1.967c.146-.306.315-.584.507-.834.193-.25.41-.449.654-.597.244-.149.514-.231.81-.247.295-.016.615.057.958.22.364.174.63.386.803.636.172.251.275.517.31.798.035.28.019.563-.047.846-.066.283-.154.54-.265.77l-.635 1.331 2.983 1.421-.376.787-6.642-3.164zM28.907 48.613l-.01.018 2.358 3.135 1.51-2.593-3.858-.56zm-1.17-.223l.413-.708 7.934.993-.512.88-1.94-.262-1.85 3.177 1.183 1.563-.497.852-4.73-6.495zM35.478 39.325a1.287 1.287 0 0 0-.763.148 1.85 1.85 0 0 0-.59.503c-.117.153-.214.319-.29.497-.075.178-.12.355-.134.532-.014.177.015.35.087.518.071.168.192.318.362.449.132.1.265.17.398.206.134.037.277.041.43.01.155-.03.33-.096.523-.201.194-.104.415-.244.664-.42.245-.17.49-.33.734-.477.245-.148.493-.255.744-.32.25-.065.508-.072.772-.023.263.05.537.184.823.403.291.223.5.475.625.754.126.28.186.568.18.865a2.49 2.49 0 0 1-.19.895 3.626 3.626 0 0 1-.923 1.32 3.129 3.129 0 0 1-.517.383 2.5 2.5 0 0 1-.586.25c-.207.06-.423.082-.647.066l-.03-.965c.31.038.608-.013.89-.154a2.031 2.031 0 0 0 .996-1.089c.072-.185.112-.37.12-.556a1.335 1.335 0 0 0-.09-.54 1.036 1.036 0 0 0-.348-.45 1.17 1.17 0 0 0-.511-.248 1.017 1.017 0 0 0-.508.056c-.18.062-.376.165-.59.306l-.75.498a5.34 5.34 0 0 1-.669.402c-.221.111-.442.183-.665.217a1.686 1.686 0 0 1-.68-.037 1.99 1.99 0 0 1-.707-.366 1.955 1.955 0 0 1-.607-.728 1.937 1.937 0 0 1-.181-.846c.003-.294.06-.587.17-.877.11-.29.264-.565.462-.823a3.24 3.24 0 0 1 .846-.785c.311-.193.675-.3 1.092-.32l.058.947zM41.825 36.872c-.318-.267-.656-.39-1.012-.366-.358.024-.687.202-.988.536-.301.335-.453.688-.453 1.06 0 .373.136.719.408 1.038l2.045-2.268zm1.94.81c.084.467.065.878-.056 1.235-.121.356-.335.704-.641 1.044a2.519 2.519 0 0 1-.839.628 2.326 2.326 0 0 1-.924.21 2.404 2.404 0 0 1-.93-.18 2.878 2.878 0 0 1-.855-.54 2.78 2.78 0 0 1-.643-.83 2.398 2.398 0 0 1-.255-.928 2.334 2.334 0 0 1 .139-.937c.112-.31.288-.598.53-.865.226-.252.477-.445.752-.58a2.03 2.03 0 0 1 .861-.21c.3-.005.603.056.912.185.308.128.612.327.91.595l.193.174-2.63 2.915c.164.129.346.225.546.288.2.063.397.091.596.083a1.56 1.56 0 0 0 .578-.136c.187-.084.354-.208.503-.372.236-.263.39-.525.46-.789.069-.263.079-.548.028-.854l.765-.136zM42.739 34.73a8.846 8.846 0 0 0-.45-.431 7.127 7.127 0 0 1-.386-.365l.55-.536c.092.094.186.186.284.275.096.089.193.183.29.282l.015-.015a1.412 1.412 0 0 1-.073-.408c-.005-.15.012-.303.05-.462a1.902 1.902 0 0 1 .662-1.03.715.715 0 0 1 .149-.087l.537.623a1.487 1.487 0 0 0-.356.26c-.358.348-.504.716-.44 1.103.064.388.293.782.685 1.183l1.655 1.693-.58.565-2.592-2.65zM49.528 33.496l-.675.585-4.689-2.367.714-.62 3.647 1.882.016-.013-1.41-3.823.658-.572zM48.646 27.929l.638-.5 3 3.825-.639.5-3-3.825zm-1.32-1.38a.578.578 0 0 1-.122-.433.564.564 0 0 1 .223-.398.562.562 0 0 1 .44-.12.58.58 0 0 1 .391.22c.107.137.15.283.132.438a.573.573 0 0 1-.233.394.576.576 0 0 1-.438.131.576.576 0 0 1-.393-.232zM54.175 25.378c-.262-.07-.501-.085-.72-.046-.218.039-.426.129-.624.268-.221.155-.39.33-.505.527-.117.196-.182.4-.196.615-.015.213.012.428.082.647.068.218.174.429.318.632.144.204.311.372.502.504.19.132.392.226.604.28.212.054.427.061.646.022.217-.04.429-.13.632-.274.436-.307.658-.708.664-1.204l.822.12a2.12 2.12 0 0 1-.338.962c-.189.285-.428.53-.717.733a2.762 2.762 0 0 1-.949.439 2.228 2.228 0 0 1-.954.025 2.436 2.436 0 0 1-.884-.37 2.815 2.815 0 0 1-.741-.735 2.773 2.773 0 0 1-.438-.936 2.342 2.342 0 0 1 .295-1.852c.178-.282.42-.53.726-.746a2.81 2.81 0 0 1 .944-.436 2.243 2.243 0 0 1 1.028-.013l-.197.838zM59.068 23.265c-.225-.349-.513-.564-.86-.646-.35-.082-.716-.007-1.102.225-.386.231-.634.525-.743.881-.11.356-.08.726.086 1.11l2.62-1.57zm1.62 1.342c-.058.47-.197.858-.417 1.164-.22.305-.527.576-.918.81a2.504 2.504 0 0 1-.987.356c-.33.041-.646.018-.945-.07a2.388 2.388 0 0 1-.836-.442 2.868 2.868 0 0 1-.66-.766 2.77 2.77 0 0 1-.372-.982 2.386 2.386 0 0 1 .028-.961c.074-.307.21-.592.408-.856.196-.263.45-.488.759-.673.29-.175.587-.286.89-.334a2.04 2.04 0 0 1 .885.05c.287.082.56.23.817.442.257.214.49.492.696.836l.134.223-3.368 2.02a1.7 1.7 0 0 0 .437.434c.171.118.353.203.546.253.192.05.39.064.593.038.203-.025.4-.094.59-.208.302-.182.526-.388.67-.62.143-.231.236-.5.277-.808l.772.094zM67.7 21.496c.395-.169.726-.395.992-.681.266-.286.463-.607.59-.963.127-.354.184-.73.17-1.126a3.278 3.278 0 0 0-.272-1.177 3.296 3.296 0 0 0-.662-1.01 2.993 2.993 0 0 0-.93-.66 2.792 2.792 0 0 0-2.282.001 2.854 2.854 0 0 0-.991.681 2.78 2.78 0 0 0-.59.962c-.127.355-.183.73-.169 1.127.014.396.105.789.27 1.177.166.389.387.726.663 1.01.275.285.585.505.93.66a2.798 2.798 0 0 0 2.282-.001m.317.745a3.984 3.984 0 0 1-1.533.336 3.61 3.61 0 0 1-2.652-1.078 4.095 4.095 0 0 1-.868-1.306 4.098 4.098 0 0 1-.342-1.53c-.01-.51.075-.99.256-1.44.181-.45.449-.855.803-1.216.355-.361.79-.652 1.306-.872a3.993 3.993 0 0 1 1.535-.337 3.616 3.616 0 0 1 2.651 1.078c.361.362.65.798.867 1.307.217.51.331 1.02.342 1.53a3.605 3.605 0 0 1-1.058 2.656c-.355.362-.79.653-1.307.872M71.356 16.78a8.48 8.48 0 0 0-.215-.585 7.934 7.934 0 0 1-.186-.496l.73-.24c.043.125.087.248.134.371.048.123.094.25.137.381l.02-.006c.016-.13.054-.262.115-.399.06-.136.143-.267.247-.393a1.902 1.902 0 0 1 .889-.593c.052-.017.106-.03.16-.042a.731.731 0 0 1 .171-.012l.208.795c-.145.004-.29.03-.434.077-.474.156-.768.422-.88.798-.114.376-.082.83.093 1.363l.741 2.248-.77.253-1.16-3.52zM75.628 16.76a1.734 1.734 0 0 0 1.419 1.297c.224.035.45.024.678-.035.267-.07.494-.177.678-.325.183-.147.327-.318.431-.513.104-.194.166-.403.187-.627a1.95 1.95 0 0 0-.056-.676 2.014 2.014 0 0 0-.302-.668 1.676 1.676 0 0 0-.483-.46 1.562 1.562 0 0 0-.625-.22 1.87 1.87 0 0 0-.717.051 1.712 1.712 0 0 0-.645.31 1.591 1.591 0 0 0-.427.507 1.757 1.757 0 0 0-.195.64 1.97 1.97 0 0 0 .057.72zm4.679 1.08c.221.858.17 1.566-.155 2.125-.325.558-.903.945-1.735 1.159a3.8 3.8 0 0 1-1.305.121 3.065 3.065 0 0 1-1.24-.42l.397-.789c.318.204.633.34.947.405a2.21 2.21 0 0 0 1.014-.04c.35-.09.627-.218.83-.38.206-.164.352-.352.44-.564.089-.212.13-.44.125-.68a3.234 3.234 0 0 0-.103-.735l-.156-.603-.02.005a1.76 1.76 0 0 1-.563.852 2.23 2.23 0 0 1-.872.45c-.37.094-.724.121-1.063.08a2.443 2.443 0 0 1-.925-.298 2.3 2.3 0 0 1-.71-.631 2.61 2.61 0 0 1-.43-.919 2.913 2.913 0 0 1-.086-1.082c.04-.34.143-.643.307-.91s.385-.497.664-.69a3.04 3.04 0 0 1 .984-.436c.16-.041.326-.064.497-.069.17-.004.34.012.511.05.171.039.332.1.483.187.151.086.287.196.407.33l.02-.005-.207-.805.785-.201 1.159 4.493zM83.509 15.103c-.513.088-.907.23-1.182.425-.276.196-.384.457-.327.784.05.3.189.496.412.587.223.092.485.111.786.059.232-.04.428-.115.588-.223a1.297 1.297 0 0 0 .57-.889c.03-.184.032-.376.005-.575l-.053-.307-.8.139zm-2.64-1.471c.202-.295.462-.532.78-.71.317-.177.649-.296.998-.356.71-.124 1.25-.045 1.623.234.372.28.617.761.735 1.443l.357 2.056a5.39 5.39 0 0 0 .215.816l-.768.133a1.675 1.675 0 0 1-.109-.355 15.27 15.27 0 0 1-.067-.352l-.02.004c-.115.272-.289.51-.525.712-.235.202-.538.335-.907.4-.246.042-.48.05-.707.027a1.759 1.759 0 0 1-.61-.174 1.295 1.295 0 0 1-.71-.968c-.07-.395-.021-.723.145-.983.166-.26.391-.472.676-.633a3.81 3.81 0 0 1 .947-.375c.347-.088.667-.158.961-.208l.307-.054-.024-.143c-.061-.347-.21-.592-.45-.733-.238-.141-.546-.18-.921-.115-.26.045-.507.131-.74.26a1.849 1.849 0 0 0-.593.508l-.592-.434zM86.439 13.26a8.41 8.41 0 0 0-.08-.617 7.38 7.38 0 0 1-.071-.525l.765-.074c.012.131.028.262.048.392s.036.265.049.402l.02-.002c.044-.122.111-.243.2-.363.09-.12.2-.229.33-.329a1.93 1.93 0 0 1 .996-.382c.318-.03.596-.008.836.066.24.074.445.19.614.348.167.158.3.355.396.593.096.238.157.501.185.79l.287 2.987-.807.077-.279-2.903c-.039-.407-.16-.719-.361-.936-.202-.217-.492-.307-.872-.271a1.582 1.582 0 0 0-.665.2c-.18.107-.324.25-.428.426a1.72 1.72 0 0 0-.213.615 3.053 3.053 0 0 0-.016.762l.226 2.356-.807.078-.353-3.69zM92.29 11.64l.81-.032.193 4.855-.81.031-.193-4.854zm-.262-1.89a.574.574 0 0 1 .155-.422.563.563 0 0 1 .414-.193.564.564 0 0 1 .427.16c.12.112.181.248.188.408a.577.577 0 0 1-.149.432.58.58 0 0 1-.42.182.576.576 0 0 1-.432-.15.573.573 0 0 1-.183-.417zM94.332 15.786l2.868-3.532-2.734-.008.002-.685 3.794.01-.001.623-2.869 3.543 2.93.008v.685l-3.992-.011zM101.687 14.322c-.518-.039-.934.002-1.25.125-.314.122-.484.349-.51.68-.022.304.064.527.259.67.193.143.442.226.747.248.234.018.443-.006.625-.072.182-.067.336-.16.464-.283.127-.122.229-.27.304-.44a1.92 1.92 0 0 0 .146-.557l.023-.31-.808-.061zm-2.2-2.07c.269-.237.578-.403.929-.498.352-.095.703-.13 1.056-.103.718.054 1.223.262 1.516.624.292.362.412.888.36 1.578l-.156 2.081a5.317 5.317 0 0 0 .01.844l-.777-.059a1.654 1.654 0 0 1-.02-.37c.007-.136.014-.254.022-.358l-.021-.002a1.896 1.896 0 0 1-.683.563c-.278.139-.603.194-.976.166a2.551 2.551 0 0 1-.693-.145 1.752 1.752 0 0 1-.55-.317 1.287 1.287 0 0 1-.452-1.111c.03-.4.157-.707.381-.92.224-.211.494-.36.81-.448a3.788 3.788 0 0 1 1.01-.133c.359 0 .686.01.983.032l.311.023.011-.145c.026-.352-.059-.625-.256-.82-.198-.195-.486-.307-.866-.336a2.388 2.388 0 0 0-.782.071 1.87 1.87 0 0 0-.698.349l-.469-.566zM107.658 13.167l-1.421-.195-.33 2.407a7.879 7.879 0 0 0-.05.439.916.916 0 0 0 .035.36.555.555 0 0 0 .184.267c.088.07.22.12.4.144a1.658 1.658 0 0 0 .732-.068l-.069.735a1.858 1.858 0 0 1-.477.07 3.031 3.031 0 0 1-.483-.024c-.29-.04-.514-.109-.676-.207a.947.947 0 0 1-.357-.374 1.204 1.204 0 0 1-.12-.535 4.57 4.57 0 0 1 .045-.68l.362-2.643-1.05-.144.093-.679 1.05.144.188-1.368.804.11-.188 1.368 1.421.194-.093.679zM109.048 10.79a.575.575 0 0 1 .241-.378.566.566 0 0 1 .446-.099c.164.03.291.112.383.248a.576.576 0 0 1 .095.44c-.03.17-.11.3-.239.389a.577.577 0 0 1-.448.088.578.578 0 0 1-.39-.24.576.576 0 0 1-.088-.447zm-.153 1.903l.798.144-.86 4.781-.798-.143.86-4.782zM111.425 15.643c-.06.248-.078.488-.05.719a1.648 1.648 0 0 0 .643 1.138c.183.14.403.24.659.303.256.062.497.072.725.03.227-.04.434-.122.62-.245.186-.122.344-.28.473-.473.128-.193.223-.414.283-.664.06-.248.077-.488.051-.719a1.647 1.647 0 0 0-1.303-1.44 1.658 1.658 0 0 0-1.818.688 2.05 2.05 0 0 0-.283.663m-.849-.205c.09-.37.235-.69.436-.963.2-.272.44-.49.714-.655.275-.165.583-.271.921-.317.34-.047.69-.026 1.055.062.363.088.686.23.966.425.28.196.506.43.675.702.17.273.281.575.337.909a2.65 2.65 0 0 1-.053 1.055c-.09.37-.234.691-.436.963-.201.272-.44.49-.714.655-.275.165-.583.271-.921.318-.34.046-.69.025-1.055-.063a2.834 2.834 0 0 1-.966-.425 2.405 2.405 0 0 1-.675-.702 2.458 2.458 0 0 1-.336-.909 2.641 2.641 0 0 1 .052-1.055M117.239 15.809c.069-.21.127-.41.175-.598.048-.189.097-.358.147-.51l.73.242c-.041.125-.08.25-.114.377a7.323 7.323 0 0 1-.117.388l.02.007c.09-.095.2-.179.33-.253.13-.073.274-.13.432-.168a1.917 1.917 0 0 1 1.067.051c.303.1.55.232.74.397.19.165.33.353.42.565.09.212.132.446.124.702a2.86 2.86 0 0 1-.15.798l-.941 2.85-.77-.255.916-2.77c.128-.388.143-.722.046-1.001-.097-.28-.327-.48-.689-.6a1.584 1.584 0 0 0-.689-.084 1.203 1.203 0 0 0-.564.218c-.167.12-.315.28-.442.477-.128.199-.235.43-.322.692l-.743 2.248-.77-.254 1.164-3.52zM131.245 19.184a2.097 2.097 0 0 0-.45-.958 2.418 2.418 0 0 0-.821-.642 2.555 2.555 0 0 0-1.125-.264c-.38.002-.744.074-1.09.219a3.093 3.093 0 0 0-.949.628 3.281 3.281 0 0 0-.69.953 3.39 3.39 0 0 0-.331 1.17c-.036.394-.002.768.1 1.12a2.657 2.657 0 0 0 1.436 1.674c.407.196.808.29 1.202.284a2.74 2.74 0 0 0 1.165-.287l.352.779a3.031 3.031 0 0 1-1.506.36 3.864 3.864 0 0 1-1.563-.405 3.734 3.734 0 0 1-1.204-.9 3.63 3.63 0 0 1-.723-1.241 3.695 3.695 0 0 1-.183-1.441c.032-.506.17-1.012.413-1.518.234-.486.536-.902.906-1.247.369-.344.779-.6 1.23-.769a3.676 3.676 0 0 1 2.912.155c.45.216.842.504 1.18.866.336.362.557.794.661 1.297l-.922.167zM132.067 23.526a2.05 2.05 0 0 0-.264.672 1.647 1.647 0 0 0 .813 1.764c.225.135.453.217.683.245.228.029.45.013.665-.048.214-.062.412-.165.593-.31.18-.147.337-.33.469-.55.132-.22.22-.443.263-.67a1.648 1.648 0 0 0-.274-1.279 1.733 1.733 0 0 0-.539-.486 1.731 1.731 0 0 0-.683-.246 1.65 1.65 0 0 0-1.258.36c-.18.146-.336.329-.468.548m-.749-.448c.196-.327.43-.59.704-.79a2.402 2.402 0 0 1 1.852-.44c.337.058.667.183.988.375.32.192.585.424.794.695.21.27.354.56.434.871.08.31.096.633.05.967-.048.335-.17.666-.366.992a2.646 2.646 0 0 1-.704.789 2.455 2.455 0 0 1-.878.412 2.405 2.405 0 0 1-.973.028 2.835 2.835 0 0 1-.989-.374 2.83 2.83 0 0 1-.795-.694 2.396 2.396 0 0 1-.433-.872 2.449 2.449 0 0 1-.05-.967 2.63 2.63 0 0 1 .366-.992M137.566 25.42c.13-.18.245-.352.347-.518.101-.165.198-.313.291-.442l.625.447c-.076.107-.15.216-.221.327a8.494 8.494 0 0 1-.228.335l.017.012c.114-.063.243-.11.39-.142.146-.032.3-.043.464-.032a1.915 1.915 0 0 1 1.003.366c.259.186.454.385.587.6.132.213.21.434.233.664.022.229-.008.465-.092.707a2.834 2.834 0 0 1-.38.717l-1.75 2.44-.659-.473 1.701-2.37c.238-.333.353-.647.344-.943-.01-.296-.17-.555-.479-.777a1.586 1.586 0 0 0-.632-.286 1.21 1.21 0 0 0-.604.04 1.712 1.712 0 0 0-.565.324c-.181.152-.352.34-.514.565l-1.38 1.924-.658-.472 2.16-3.012zM144.638 30.223l-1.11-.907-1.54 1.88a8.68 8.68 0 0 0-.271.348.895.895 0 0 0-.16.326.555.555 0 0 0 .018.323c.037.106.126.217.266.33a1.663 1.663 0 0 0 .66.326l-.443.59a1.841 1.841 0 0 1-.444-.188 3.077 3.077 0 0 1-.4-.274c-.225-.184-.381-.36-.467-.529a.938.938 0 0 1-.11-.505c.013-.168.072-.341.177-.52.106-.177.237-.362.395-.555l1.691-2.065-.82-.67.435-.53.82.67.875-1.069.628.513-.876 1.068 1.11.908-.434.53zM145.124 31.274a8.75 8.75 0 0 0 .403-.476c.12-.153.233-.288.34-.407l.57.516a7.731 7.731 0 0 0-.257.299 7.599 7.599 0 0 1-.264.307l.015.014c.12-.05.255-.082.404-.097.149-.015.304-.008.465.02a1.911 1.911 0 0 1 1.071.597c.037.043.068.09.095.142l-.589.574a1.521 1.521 0 0 0-.281-.339c-.37-.334-.747-.457-1.13-.37-.384.089-.763.34-1.14.756l-1.589 1.756-.6-.543 2.487-2.749zM147.252 34.972a2.068 2.068 0 0 0-.426.582 1.653 1.653 0 0 0-.062 1.306c.08.216.212.418.396.607a1.66 1.66 0 0 0 1.253.535 1.66 1.66 0 0 0 .653-.15c.211-.095.41-.231.593-.41.184-.179.327-.372.427-.581a1.66 1.66 0 0 0 .167-.648 1.669 1.669 0 0 0-.501-1.266 1.745 1.745 0 0 0-.597-.412 1.655 1.655 0 0 0-1.31.027c-.21.095-.409.232-.593.41m-.608-.624c.273-.266.567-.46.882-.583.316-.124.633-.181.955-.175.32.008.637.081.948.222.312.142.599.347.86.614.26.268.457.56.59.874.133.315.198.633.196.954-.002.32-.068.636-.2.947-.131.311-.334.6-.606.866a2.65 2.65 0 0 1-.883.582 2.459 2.459 0 0 1-.955.175 2.404 2.404 0 0 1-.948-.222 2.835 2.835 0 0 1-.86-.613 2.83 2.83 0 0 1-.59-.875 2.39 2.39 0 0 1-.197-.953c.002-.32.07-.637.2-.948.132-.312.334-.6.608-.865M155.228 35.55l.53.611-5.941 5.135-.53-.612zM156.452 43.026l.45.636c.14.197.29.399.451.603.161.204.336.373.524.507.188.135.39.212.605.235.215.021.446-.055.695-.23.216-.152.358-.316.429-.493.07-.176.092-.36.064-.547a1.74 1.74 0 0 0-.189-.566c-.1-.188-.21-.37-.334-.545l-.708-1.001-1.987 1.4zm2.146-2.58l1.085 1.535c.204.288.39.587.557.896.168.31.275.618.321.924.047.306.01.606-.107.901-.118.295-.363.574-.737.838-.442.311-.892.43-1.352.355-.46-.074-.891-.32-1.296-.737l-1.564 3.656-.617-.873 1.55-3.532-.648-.916-2.7 1.903-.504-.712 6.012-4.238zM160.32 51.314c.352-.222.57-.507.654-.854.086-.347.014-.715-.215-1.102-.228-.388-.52-.638-.876-.75-.356-.112-.726-.087-1.113.076l1.55 2.63zm-1.357 1.606c-.47-.061-.857-.203-1.161-.426a3.04 3.04 0 0 1-.804-.924 2.512 2.512 0 0 1-.348-.988 2.316 2.316 0 0 1 .078-.943c.09-.298.24-.575.45-.832.211-.256.469-.473.773-.653.322-.19.651-.31.986-.363.335-.052.656-.04.962.037.307.076.59.214.853.413.262.2.485.454.668.765.172.292.281.589.327.891.046.303.026.598-.058.884a2.235 2.235 0 0 1-.45.813 3.226 3.226 0 0 1-.843.688l-.223.132-1.994-3.382a1.714 1.714 0 0 0-.439.433c-.12.17-.206.352-.258.543a1.502 1.502 0 0 0 .16 1.183c.18.304.385.529.616.675.23.145.499.24.806.284l-.1.77zM161.324 54.104c-.231.111-.428.25-.59.416a1.646 1.646 0 0 0-.29 1.92c.115.238.26.43.436.58a1.655 1.655 0 0 0 1.25.39c.23-.024.461-.09.692-.202.231-.111.428-.25.59-.416.162-.167.283-.354.364-.561.08-.208.117-.427.11-.658a1.74 1.74 0 0 0-.183-.702 1.75 1.75 0 0 0-.436-.579 1.655 1.655 0 0 0-1.25-.39c-.231.023-.462.09-.693.202zm1.838-1.785l.353.73-.638.306.01.02c.333.084.63.228.889.43.258.202.465.461.618.78.166.342.26.683.28 1.023.022.339-.022.657-.131.956-.11.299-.278.572-.505.82-.227.247-.505.45-.836.61-.33.159-.664.25-1 .273a2.517 2.517 0 0 1-.953-.11 2.337 2.337 0 0 1-.818-.465 2.399 2.399 0 0 1-.589-.777 2.251 2.251 0 0 1-.24-1.157c.028-.379.134-.697.317-.954l-.009-.02-2.91 1.403-.353-.73 6.515-3.138zM163.9 59.717c-.24.09-.448.213-.624.365a1.65 1.65 0 0 0-.575 1.174c-.012.23.028.468.122.714a1.66 1.66 0 0 0 .938.988c.206.084.426.125.658.122.232-.004.468-.05.707-.142.24-.09.448-.212.624-.364a1.649 1.649 0 0 0 .576-1.174 1.742 1.742 0 0 0-.122-.714 1.738 1.738 0 0 0-.385-.616 1.653 1.653 0 0 0-1.212-.494c-.232.003-.468.05-.708.141m-.31-.815a2.649 2.649 0 0 1 1.041-.185c.339.013.654.085.946.219.291.133.553.327.782.58.23.253.412.554.545.903.132.35.197.695.194 1.037-.003.342-.07.66-.198.953-.13.294-.317.557-.561.79a2.644 2.644 0 0 1-.901.554 2.649 2.649 0 0 1-1.041.185 2.458 2.458 0 0 1-.946-.218 2.397 2.397 0 0 1-.782-.58 2.821 2.821 0 0 1-.545-.904 2.828 2.828 0 0 1-.194-1.037c.003-.342.07-.66.198-.953.13-.293.316-.557.56-.79.245-.234.546-.418.902-.554M167.02 64.591c.212-.064.409-.132.59-.202.182-.069.349-.127.502-.174l.224.735c-.126.038-.251.08-.375.125a7.69 7.69 0 0 1-.385.128l.006.02c.129.019.261.06.397.124.135.063.265.148.388.256a1.9 1.9 0 0 1 .573.9c.017.052.03.106.04.161a.764.764 0 0 1 .008.171l-.8.19c-.001-.145-.024-.29-.068-.435-.146-.477-.406-.776-.78-.897-.373-.121-.829-.1-1.365.064l-2.267.69-.237-.774 3.549-1.082zM169.165 70.601l-.35-1.39-2.358.593c-.155.039-.297.078-.427.117a.907.907 0 0 0-.321.167.55.55 0 0 0-.18.27c-.033.108-.027.25.016.424a1.662 1.662 0 0 0 .336.655l-.707.21a1.842 1.842 0 0 1-.244-.416 2.991 2.991 0 0 1-.159-.458c-.07-.282-.09-.516-.059-.702a.948.948 0 0 1 .214-.471c.11-.128.261-.232.452-.312.191-.08.407-.15.65-.211l2.59-.65-.26-1.028.666-.167.259 1.027 1.34-.336.198.785-1.341.337.35 1.389-.665.167zM166.572 72.323c-.168.195-.29.397-.37.606-.08.209-.092.456-.036.741.023.123.06.244.112.365.052.12.118.225.2.315a.77.77 0 0 0 .275.2c.105.044.22.053.35.028a.543.543 0 0 0 .3-.147.778.778 0 0 0 .164-.27 1.32 1.32 0 0 0 .075-.353c.01-.128.016-.26.019-.395.004-.233.017-.457.039-.673a2.13 2.13 0 0 1 .136-.582 1.15 1.15 0 0 1 .312-.44c.138-.122.33-.207.575-.254.232-.045.445-.033.642.034.197.068.37.176.518.323.148.147.274.321.375.52a2.351 2.351 0 0 1 .197 1.617c-.08.315-.258.584-.532.806l-.567-.578a1.25 1.25 0 0 0 .335-.483c.073-.186.087-.399.04-.637a1.449 1.449 0 0 0-.104-.323 1.057 1.057 0 0 0-.18-.277.736.736 0 0 0-.252-.179.515.515 0 0 0-.307-.03.379.379 0 0 0-.242.147.868.868 0 0 0-.138.302c-.032.122-.055.26-.068.414a4.928 4.928 0 0 0-.014.473c0 .219-.014.43-.041.633a1.787 1.787 0 0 1-.164.549c-.081.164-.195.302-.343.415-.148.113-.34.193-.579.239a1.406 1.406 0 0 1-.725-.03 1.377 1.377 0 0 1-.548-.343 1.934 1.934 0 0 1-.379-.561 3.026 3.026 0 0 1-.216-.683c-.08-.407-.084-.772-.016-1.091.07-.32.25-.632.545-.935l.612.537z"/>
        <path fill="#808184" d="M1.5 97.188h189.05V82.012H1.5z"/>
        <g>
            <path stroke="#FEFEFE" stroke-width="2.21" d="M1.5 97.188h189.05V82.012H1.5z"/>
            <path fill="#FEFEFE" d="M23.804 88.242a1.055 1.055 0 0 0-.483-.384 1.691 1.691 0 0 0-1.021-.077 1.04 1.04 0 0 0-.335.145.756.756 0 0 0-.24.257.744.744 0 0 0-.09.375c0 .216.076.382.226.496.15.115.338.214.56.298.223.085.467.166.733.244.264.078.509.187.732.325.222.138.409.322.56.55.15.23.226.533.226.912 0 .343-.063.643-.19.899a1.838 1.838 0 0 1-.51.636 2.224 2.224 0 0 1-.746.38 3.15 3.15 0 0 1-.895.125c-.397 0-.78-.066-1.148-.198a2.214 2.214 0 0 1-.948-.668l.858-.83c.139.21.32.374.547.491a1.538 1.538 0 0 0 1.116.122c.132-.036.253-.09.361-.163a.851.851 0 0 0 .263-.274c.066-.112.099-.24.099-.384 0-.235-.075-.416-.226-.542a2.004 2.004 0 0 0-.56-.32 9.456 9.456 0 0 0-.732-.249 3.091 3.091 0 0 1-.732-.32 1.774 1.774 0 0 1-.56-.542c-.151-.225-.227-.528-.227-.907 0-.33.068-.617.204-.858.135-.24.313-.44.533-.6.22-.16.471-.278.755-.356a3.246 3.246 0 0 1 1.848.036c.316.102.6.27.854.505l-.832.876zM27.663 86.87h4.239v1.029h-3.1v1.57h2.937v1.03h-2.937v1.733h3.262v1.03h-4.4zM37.017 89.578c.162 0 .325-.008.488-.023.162-.015.312-.051.447-.108a.761.761 0 0 0 .33-.262c.084-.118.127-.281.127-.492a.785.785 0 0 0-.118-.451.734.734 0 0 0-.307-.257 1.411 1.411 0 0 0-.42-.113 3.834 3.834 0 0 0-.448-.027h-.985v1.733h.886zm-2.025-2.708h2.224c.307 0 .603.028.89.085.286.058.54.155.763.294.223.138.4.325.534.56.132.234.198.532.198.893 0 .463-.127.852-.384 1.165-.256.313-.622.502-1.098.568l1.7 2.826h-1.374l-1.482-2.708h-.832v2.708h-1.139V86.87zM41.752 86.87h1.31l1.745 4.829 1.798-4.83h1.23l-2.585 6.392h-.985zM50.301 93.261h1.14V86.87H50.3zM59.04 88.368c-.234-.253-.462-.421-.682-.505a1.852 1.852 0 0 0-.664-.127c-.331 0-.63.059-.9.176-.267.118-.498.28-.69.488-.194.207-.343.45-.448.727a2.491 2.491 0 0 0-.158.893c0 .343.053.659.158.948.105.289.254.539.447.75a2.085 2.085 0 0 0 1.59.676c.26 0 .512-.061.756-.185.244-.123.47-.32.682-.591l.94.668c-.29.397-.642.686-1.058.867-.415.18-.858.27-1.328.27-.494 0-.948-.08-1.36-.239a3.114 3.114 0 0 1-1.067-.677 3.112 3.112 0 0 1-.7-1.051 3.55 3.55 0 0 1-.253-1.364c0-.511.084-.976.253-1.394.169-.418.402-.775.7-1.07a3.078 3.078 0 0 1 1.067-.682c.412-.159.866-.239 1.36-.239.434 0 .836.077 1.206.23.37.154.716.414 1.035.782l-.885.65zM62.647 86.87h4.238v1.029h-3.1v1.57h2.937v1.03h-2.937v1.733h3.263v1.03h-4.401zM75.308 90.02c0 .344.052.659.158.948.105.289.254.539.447.75.193.21.423.375.692.496.268.12.568.18.899.18.331 0 .632-.06.904-.18a2.06 2.06 0 0 0 .695-.496c.193-.211.342-.461.448-.75.105-.289.158-.604.158-.948 0-.319-.053-.616-.158-.893a2.223 2.223 0 0 0-.448-.727 2.043 2.043 0 0 0-.695-.488 2.253 2.253 0 0 0-.904-.176 2.22 2.22 0 0 0-.9.176c-.268.118-.498.28-.69.488-.194.207-.343.45-.448.727a2.481 2.481 0 0 0-.158.893m-1.193.072c0-.512.084-.976.253-1.394.168-.418.402-.775.7-1.07a3.072 3.072 0 0 1 1.067-.682c.412-.159.866-.239 1.36-.239.5-.006.958.068 1.373.221.416.154.775.378 1.076.673.301.295.536.65.705 1.065.168.416.253.879.253 1.39 0 .5-.085.954-.253 1.364a3.128 3.128 0 0 1-.705 1.055c-.301.296-.66.526-1.076.69-.415.167-.873.252-1.373.258-.494 0-.948-.08-1.36-.239a3.114 3.114 0 0 1-1.067-.677 3.112 3.112 0 0 1-.7-1.051 3.543 3.543 0 0 1-.253-1.364M85.818 89.578c.162 0 .325-.008.488-.023.162-.015.312-.051.447-.108a.765.765 0 0 0 .33-.262c.084-.118.126-.281.126-.492a.785.785 0 0 0-.117-.451.73.73 0 0 0-.307-.257 1.414 1.414 0 0 0-.42-.113 3.832 3.832 0 0 0-.448-.027h-.985v1.733h.886zm-2.024-2.708h2.222c.308 0 .605.028.89.085.287.058.541.155.765.294.222.138.4.325.532.56.133.234.2.532.2.893 0 .463-.129.852-.385 1.165-.256.313-.622.502-1.098.568l1.7 2.826h-1.374l-1.482-2.708h-.832v2.708h-1.138V86.87zM96.98 92.791c-.79.422-1.673.632-2.649.632-.494 0-.947-.08-1.36-.239a3.1 3.1 0 0 1-1.066-.677 3.108 3.108 0 0 1-.7-1.051 3.549 3.549 0 0 1-.253-1.363c0-.512.084-.977.252-1.395.169-.418.402-.775.7-1.07a3.073 3.073 0 0 1 1.067-.682c.413-.159.866-.238 1.36-.238.488 0 .946.058 1.374.176.427.116.81.326 1.148.626l-.84.85a2.099 2.099 0 0 0-.747-.46 2.633 2.633 0 0 0-.925-.164c-.332 0-.632.06-.9.176-.268.118-.498.28-.691.488-.193.207-.342.45-.448.727a2.491 2.491 0 0 0-.158.893c0 .343.053.659.158.948.106.289.255.539.448.75a2.085 2.085 0 0 0 1.59.676c.29 0 .562-.027.818-.081.256-.054.484-.138.682-.253v-1.507h-1.31v-1.03h2.45v3.268zM103.649 90.824l-.986-2.6-1.002 2.6h1.988zm-1.446-3.954h.985l2.756 6.39h-1.301l-.596-1.462h-2.775l-.578 1.463h-1.275l2.784-6.391zM108.465 86.87h1.51l3.1 4.748h.018V86.87h1.138v6.391h-1.446l-3.163-4.902h-.018v4.902h-1.139zM117.44 93.261h1.139V86.87h-1.14zM121.39 92.232l3.415-4.333h-3.362v-1.03h4.781v1.03l-3.443 4.333h3.497v1.029h-4.889zM132.632 90.824l-.986-2.6-1.003 2.6h1.989zm-1.446-3.954h.984l2.757 6.39h-1.302l-.596-1.462h-2.775l-.578 1.463h-1.274l2.784-6.391zM137.927 87.899h-1.961v-1.03h5.06v1.03h-1.96v5.362h-1.139zM143.584 93.261h1.14V86.87h-1.14zM148.781 90.02c0 .344.052.659.158.948.105.289.255.539.448.75.192.21.422.375.69.496.269.12.569.18.9.18.331 0 .633-.06.904-.18a2.06 2.06 0 0 0 .696-.496c.192-.211.341-.461.447-.75.105-.289.158-.604.158-.948 0-.319-.053-.616-.158-.893a2.223 2.223 0 0 0-.447-.727 2.043 2.043 0 0 0-.696-.488 2.253 2.253 0 0 0-.904-.176 2.22 2.22 0 0 0-.9.176c-.268.118-.498.28-.69.488-.193.207-.343.45-.448.727a2.481 2.481 0 0 0-.158.893m-1.193.072a3.7 3.7 0 0 1 .253-1.394c.169-.418.402-.775.7-1.07a3.072 3.072 0 0 1 1.067-.682c.412-.159.866-.239 1.36-.239.5-.006.958.068 1.374.221.415.154.774.378 1.075.673.302.295.536.65.705 1.065.169.416.253.879.253 1.39 0 .5-.084.954-.253 1.364a3.128 3.128 0 0 1-.705 1.055c-.301.296-.66.526-1.075.69-.416.167-.874.252-1.374.258-.494 0-.948-.08-1.36-.239a3.114 3.114 0 0 1-1.066-.677 3.112 3.112 0 0 1-.7-1.051 3.551 3.551 0 0 1-.254-1.364M157.267 86.87h1.509l3.1 4.748h.018V86.87h1.139v6.391h-1.446l-3.163-4.902h-.019v4.902h-1.138zM169.404 88.242a1.053 1.053 0 0 0-.483-.384 1.693 1.693 0 0 0-1.022-.077c-.123.03-.235.079-.334.145a.757.757 0 0 0-.24.257.744.744 0 0 0-.09.375c0 .216.075.382.226.496.15.115.337.214.56.298.223.085.467.166.732.244.265.078.51.187.732.325.223.138.41.322.56.55.151.23.227.533.227.912 0 .343-.064.643-.19.899a1.828 1.828 0 0 1-.511.636 2.222 2.222 0 0 1-.745.38 3.15 3.15 0 0 1-.895.125c-.398 0-.78-.066-1.148-.198a2.213 2.213 0 0 1-.949-.668l.858-.83c.14.21.322.374.548.491a1.536 1.536 0 0 0 1.116.122 1.23 1.23 0 0 0 .36-.163.848.848 0 0 0 .263-.274.74.74 0 0 0 .1-.384c0-.235-.076-.416-.227-.542a2.004 2.004 0 0 0-.56-.32 9.377 9.377 0 0 0-.731-.249 3.091 3.091 0 0 1-.733-.32 1.77 1.77 0 0 1-.56-.542c-.15-.225-.226-.528-.226-.907 0-.33.068-.617.204-.858.135-.24.312-.44.532-.6.22-.16.472-.278.755-.356a3.25 3.25 0 0 1 1.848.036c.316.102.601.27.855.505l-.832.876z"/>
        </g>
        <path fill="#231F20" d="M172.31 154.171h.97c.841 0 1.652-.041 1.652-1.04 0-.853-.74-.95-1.38-.95h-1.241v1.99zm-.94-2.76h2.337c1.466 0 2.167.582 2.167 1.763 0 1.126-.713 1.595-1.638 1.695l1.78 2.734h-1.012l-1.681-2.662h-1.012v2.662h-.942v-6.192zm2.023 7.63c2.423 0 4.36-1.965 4.36-4.527 0-2.562-1.937-4.526-4.36-4.526-2.438 0-4.36 1.964-4.36 4.526s1.922 4.526 4.36 4.526zm0-9.824c2.88 0 5.301 2.278 5.301 5.297 0 3.017-2.421 5.294-5.3 5.294-2.892 0-5.3-2.277-5.3-5.294 0-3.019 2.408-5.297 5.3-5.297z"/>
    </g>
</svg>
