<svg xmlns="http://www.w3.org/2000/svg" xmlns:xlink="http://www.w3.org/1999/xlink" viewBox="0 0 173 119">
    <defs>
        <path id="a" d="M.018.257v108.03h49.228V.257H.018z"/>
    </defs>
    <g fill="none" fill-rule="evenodd">
        <path fill="#2396B8" d="M5.553 32.978v22.3h26.75v-22.3h4.29v51.361h-4.29V59.45H5.554v24.889h-4.29V32.978h4.29M76.15 58.5c2.791 0 5.052-.863 6.782-2.589 1.73-1.726 2.595-4.363 2.595-7.913 0-3.548-.865-6.186-2.595-7.913-1.73-1.726-3.99-2.59-6.782-2.59h-13.8v21.006h13.8zm.885-25.176c1.887 0 3.597.323 5.13.97a10.65 10.65 0 0 1 3.952 2.878c1.1 1.272 1.946 2.818 2.536 4.64.59 1.823.884 3.884.884 6.186s-.294 4.365-.884 6.187c-.59 1.823-1.436 3.37-2.536 4.64a10.634 10.634 0 0 1-3.951 2.877c-1.534.647-3.244.97-5.131.97H62.349v22.013h-4.01V33.324h18.696zM116.22 64.146l-9.938-26.328-10.298 26.328h20.235zm-6.986-31.22l20.164 51.361h-5.257l-6.265-15.97H94.471l-6.193 15.97h-5.185l20.668-51.361h5.473z"/>
        <path fill="#2396B8" d="M157.963 64.146l-9.937-26.328-10.299 26.328h20.236zm-6.985-31.22l20.164 51.361h-5.257l-6.266-15.97h-23.404l-6.193 15.97h-5.185l20.668-51.361h5.473z"/>
        <path fill="#797C7A" d="M95.335 95.707c-1.182-1.393-2.818-2.247-4.532-2.247-3.311 0-5.991 3.28-5.991 7.01s2.7 7.01 6.03 7.01c1.675 0 3.31-.899 4.493-2.247v2.337c-1.28 1.056-2.857 1.662-4.434 1.662-4.197 0-7.744-3.886-7.744-8.695 0-4.853 3.487-8.83 7.744-8.83 1.655 0 3.114.54 4.434 1.663v2.337M99.08 103.66c0 2.157 1.339 3.91 3.29 3.91s3.29-1.753 3.29-3.91c0-2.134-1.339-3.909-3.29-3.909s-3.29 1.775-3.29 3.91zm-1.578.023c0-3.1 2.149-5.595 4.868-5.595 2.72 0 4.868 2.494 4.868 5.595 0 3.1-2.168 5.55-4.868 5.55s-4.868-2.45-4.868-5.55zM111.178 99.526h.04c.492-.876 1.28-1.438 2.227-1.438 1.083 0 2.069.652 2.561 1.753.552-1.168 1.656-1.753 2.779-1.753 2.365 0 2.956 2.202 2.956 4.427v6.425h-1.576v-6.133c0-1.371-.08-3.056-1.695-3.056-1.813 0-2.01 2-2.01 3.595v5.594h-1.577v-5.999c0-1.303-.138-3.19-1.655-3.19-1.853 0-2.05 2.135-2.05 3.73v5.46h-1.576V98.38h1.576v1.145M126.352 103.548c0 2.067 1.064 4.022 3.035 4.022 2.03 0 3.093-1.865 3.093-4 0-2.111-1.162-3.819-3.113-3.819-1.833 0-3.015 1.82-3.015 3.797zm.079-3.662h.039c.768-1.168 1.911-1.798 3.192-1.798 2.72 0 4.434 2.674 4.434 5.595 0 3.01-1.675 5.55-4.453 5.55-1.262 0-2.424-.63-3.173-1.776h-.04v7.414h-1.576v-16.49h1.577v1.505zM136.46 108.94h1.577V90.405h-1.576zM141.466 108.94h1.576V98.38h-1.576v10.56zm1.911-14.536c0 .719-.512 1.28-1.123 1.28s-1.123-.561-1.123-1.28c0-.697.512-1.28 1.123-1.28.61 0 1.123.583 1.123 1.28zM147.358 103.548c0 2.067 1.064 4.022 3.034 4.022 2.03 0 3.094-1.865 3.094-4 0-2.111-1.162-3.819-3.113-3.819-1.833 0-3.015 1.82-3.015 3.797zm7.626 5.392h-1.577v-1.46h-.039c-.808 1.168-1.892 1.752-3.192 1.752-2.72 0-4.434-2.628-4.434-5.55 0-3.01 1.675-5.594 4.453-5.594 1.262 0 2.404.674 3.173 1.798h.04v-1.505h1.576v10.56zM159.674 99.661h.04c.65-1.01 1.497-1.573 2.64-1.573 2.562 0 3.153 2.112 3.153 4.584v6.268h-1.577v-5.954c0-1.707-.118-3.235-1.95-3.235-2.168 0-2.306 2.292-2.306 4.18v5.01h-1.577V98.38h1.577v1.28M170.354 108.94h-1.576v-8.897h-.966v-1.662h.966v-3.798h1.576v3.798h1.656v1.662h-1.656v8.897"/>
        <path fill="#2396B8" d="M53.55 5.917c0 3.269-2.636 5.918-5.887 5.918-3.25 0-5.885-2.65-5.885-5.918C41.778 2.65 44.413 0 47.663 0s5.886 2.65 5.886 5.917"/>
        <path fill="#2396B8" d="M45.388 45.7s3.165-.2 4.254-.498l.395-34.51-4.847.198.198 34.81M49.592 55.993l-4.055.497v7.658l4.105-2.387-.05-5.768M49.543 72.75v4.277l-3.908 1.84v-3.929l3.908-2.188M49.246 87.22v1.443L45.784 91v-2.983l3.462-.796"/>
        <g transform="translate(0 10.144)">
            <mask id="b" fill="#fff">
                <use xlink:href="#a"/>
            </mask>
            <path fill="#2396B8" d="M49.246 87.32v2.288l-3.512 1.84.05-2.785 3.462-1.343M49.098 96.072v12.233H46.08l-.198-10.79 3.215-1.443" mask="url(#b)"/>
            <path fill="#F4BF3C" d="M43.039 5.98l-.111 14.396s-11.24.82-13.392-.933c0 0-.741-.41-.037-1.342.705-.933-.853-1.604-2.04-.97-1.187.634-8.346 1.79-10.127.15 0 0-.519-.672-.37-1.343 0 0-2.412-.262-2.04-1.343 0 0-5.38.522-6.567-4.4 0 0-5.193.447-5.75-2.015 0 0-3.152-1.007-2.522-3.133.631-2.125 2.671-.074 5.194-.26C7.799 4.6 25.159 4.04 31.614 1.354c6.454-2.685 7.79.261 8.346 1.38.556 1.119 2.522 3.133 3.079 3.245" mask="url(#b)"/>
        </g>
        <path fill="#F4BF3C" d="M52.08 16.273l.112 14.396s11.24.82 13.391-.932c0 0 .742-.41.037-1.343-.705-.932.853-1.604 2.04-.97 1.187.634 8.347 1.79 10.127.15 0 0 .52-.672.371-1.343 0 0 2.411-.261 2.04-1.343 0 0 5.38.523 6.566-4.4 0 0 5.193.447 5.75-2.014 0 0 3.153-1.007 2.522-3.133-.63-2.126-2.67-.075-5.193-.261-2.523-.187-19.883-.746-26.337-3.431-6.455-2.686-7.79.26-8.346 1.38-.557 1.118-2.523 3.132-3.08 3.244M31.54 50.92s-9.645-3.928-6.776-13.227c0 0 1.137-3.78 8.556-3.829 7.419-.05 4.65.15 4.65.15s4.995.148 4.6 6.712c0 0 .147 1.99-3.612 1.492-3.759-.497-1.187-1.89-6.38-3.183 0 0-1.78-.745-1.335 2.04.445 2.784.494 2.088.494 2.088l-.197 7.757"/>
        <path fill="#FFFFFE" d="M35.496 37.096l2.82.1s-.05 1.442-2.078.845c0 0-.643-.298-.742-.945"/>
        <path fill="#F4BF3C" d="M57.728 33.877s-3.264-.858-5.119 3.729 2.93 4.662 3.598 4.475c.668-.186 2.003-.447 2.634-1.342.63-.895 3.116-1.977 4.229-1.94 1.113.038.927 1.641.408 3.73v8.503s7.678-2.722 7.196-12.419c0 0-.037-4.252-8.383-4.587l-4.563-.15"/>
        <path fill="#FFFFFE" d="M56.504 37.158l2.968.038s-2.003 2.051-2.968-.038"/>
        <path fill="#F4BF3C" d="M57.135 45.923v7.086s-3.339.671-6.158.895c-2.82.224-10.683-.298-10.164 4.998 0 0 .594 2.834 3.264 4.55 0 0-3.783.82-6.306 2.76V50.323s1.113-2.014 6.455-2.387c5.341-.373 10.46-.895 12.909-2.014"/>
        <path fill="#F4BF3C" d="M52.164 55.62s3.858-.373 5.045-.895v13.127s-9.941 2.76-13.8 6.042c0 0-2.373 1.79-.296 3.58 2.077 1.79.964 1.79-.37 2.387 0 0-4.304 2.462-4.972 2.835v-12.68s13.132-5.073 16.693-10.22c0 0 1.41-1.715-2.3-4.176"/>
        <path fill="#F4BF3C" d="M51.274 71.806s2.3-1.492 5.935-1.865v13.128s-1.187 1.044-10.98 2.61c0 0-5.12 1.269-2.448 5.222l-3.487 2.76s-5.268-3.059-2.152-7.236c3.116-4.177 14.096-7.98 15.21-8.801 1.112-.82 3.412-2.91-2.078-5.818"/>
        <path fill="#F4BF3C" d="M51.2 86.35s1.706-.969 4.525-1.193c0 0 3.487 8.056-2.745 9.772-6.232 1.715-10.164 2.014-8.16 6.041 0 0 0 1.194-2.078 1.94 0 0-5.564-3.208-1.706-7.907 0 0 1.484-1.268 6.75-3.356 0 0 5.64-1.716 3.414-5.296M50.532 99.031l4.525-2.312s4.007 3.058-1.854 5.743c-5.861 2.686-13.503 6.34-13.8 6.863 0 0-2.003 1.193-.593-2.089 0 0 4.155-2.685 7.642-4.252 3.486-1.566 6.75-2.909 4.08-3.953M52.906 104.85l-2.003 1.416s2.596 2.089 4.525 1.865c1.93-.224-2.522-3.282-2.522-3.282"/>
    </g>
</svg>
