<svg xmlns="http://www.w3.org/2000/svg" xmlns:xlink="http://www.w3.org/1999/xlink" height="267" width="278"><svg height="92" width="270" x="4" y="4"><defs><path id="a" d="M.007 21.412V.062H30.39v21.35H.007z"/></defs><g fill="none" fill-rule="evenodd"><path d="M118.723 46.319c5.24 0 9.431-4.504 9.431-10.718 0-6.254-4.15-10.716-9.431-10.716-5.282 0-9.39 4.503-9.39 10.716 0 6.173 4.15 10.718 9.39 10.718zm-.964 8.59c-3.48-1.752-6.623-3.127-9.935-3.42l1.467-3.377c.587.042 1.216.167 1.803.292-4.485-2.294-7.126-7.047-7.126-12.803 0-4.42 1.509-8.256 4.317-11.216 2.767-2.92 6.498-4.504 10.438-4.504a14.27 14.27 0 0 1 8.97 3.17c3.689 2.96 5.785 7.422 5.785 12.55 0 4.922-2.096 9.383-5.743 12.26-2.473 1.919-5.24 2.92-7.755 2.92-.503 0-.964 0-1.509-.084v.208c3.73 1.46 7.504 2.794 11.738 3.42l-1.342 4.462c-5.198-.667-8.467-2.544-11.108-3.878zm23.264-22.893v11.467c0 2.252 1.174 3.42 3.353 3.42 3.103 0 4.989-1.46 4.989-4.421V32.016h4.862v18.347l-4.4.876-.169-3.711c-2.012 2.377-4.317 3.544-7.126 3.544-4.15 0-6.371-2.251-6.371-6.546v-12.51h4.862m30.433 3.919c-1.342-.708-2.474-1.084-3.438-1.084-3.354 0-5.742 2.627-5.742 6.84 0 3.627 1.97 5.754 5.239 5.754 1.132 0 2.431-.418 3.94-1.293V35.935zm.712 13.886c-2.054.918-3.815 1.376-5.366 1.376-5.742 0-9.473-4.002-9.473-9.674 0-5.963 4.527-10.216 9.683-10.216 1.593 0 3.186.416 4.904 1.167l4.402-.458v12.801c0 2.044.21 3.879.587 5.546l-4.402.876-.335-1.418zm8.635.542V32.016h4.527V35.1c2.012-2.418 4.36-3.586 7.168-3.586 4.15 0 6.372 2.252 6.372 6.547v12.301h-4.863V39.105c0-2.253-1.132-3.42-3.311-3.42-3.102 0-5.03 1.46-5.03 4.42v10.258h-4.863m23.181-14.303h-2.935v-4.044h2.935V26.51l4.946-.875v6.38h5.114v4.044h-5.114v6.882c0 3.46.125 5.254 3.185 7.422l-5.49.542c-2.516-1.5-2.641-3.627-2.641-7.046V36.06m17.982-4.044v11.467c0 2.252 1.173 3.42 3.353 3.42 3.103 0 4.989-1.46 4.989-4.421V32.016h4.862v18.347l-4.401.876-.168-3.711c-2.012 2.377-4.317 3.544-7.126 3.544-4.15 0-6.372-2.251-6.372-6.546v-12.51h4.863m30.139 18.347V39.105c0-2.21-1.09-3.42-3.102-3.42-2.892 0-4.653 1.46-4.653 4.42v10.258h-4.863V32.016h4.528V35.1c1.928-2.418 4.108-3.586 6.832-3.586 2.683 0 4.611 1.126 5.869 3.586 1.76-2.335 4.15-3.586 6.874-3.586 3.898 0 5.994 2.21 5.994 6.547v12.301h-4.862V39.105c0-2.21-1.09-3.42-3.102-3.42-2.892 0-4.653 1.46-4.653 4.42v10.258h-4.862" fill="#FFF"/><path fill="#089D89" d="M68.576 10.37a41.464 41.464 0 0 0-11.634-7.227l-10.852 26.2a12.94 12.94 0 0 1 3.568 2.202L68.576 10.37m7.053 8.031a41.5 41.5 0 0 0-3.137-4.088l-21.6 18.459c.355.404.688.828.991 1.274L75.63 18.401M32.02 50.327L19.632 62.74c.218.216.443.424.668.634l12.004-12.779c-.095-.089-.191-.176-.284-.268"/><path fill="#602977" d="M28.01 2.173l-.004.001L31.754 13.3 28.01 2.173"/><path fill="#B56C8E" d="M10.656 13.383c-.001 0-.002 0-.002.002l2.022 1.843-2.02-1.845"/><path fill="#9BC862" d="M72.94 91.306a59.5 59.5 0 0 0 1.841-1.207L48.43 51.87c-.131.089-.265.174-.4.258l24.91 39.178m-23.251-40.41l30.913 34.68a59.204 59.204 0 0 0 2.789-2.616L50.296 50.334c-.196.195-.4.38-.607.562"/><path fill="#065928" d="M10.653 41.396l.002.09 17.582-.148-.002-.09-17.582.148"/><path fill="#0072AD" d="M20.3 63.374a.435.435 0 0 0 .018.017l11.994-12.788-.008-.008L20.3 63.374"/><path fill="#693F17" d="M30.004 34.744c0 .002 0 .004-.002.005l.002-.005"/><path fill="#E05486" d="M37.052 29.042L28.006 2.174a41.458 41.458 0 0 0-17.35 11.209l2.02 1.845 18.976 17.298a12.937 12.937 0 0 1 5.4-3.484"/><path fill="#F4B452" d="M6.656 64.005a41.377 41.377 0 0 0 3.362 4.363l21.424-18.662a13.06 13.06 0 0 1-1.05-1.36L6.656 64.005m33.52-9.952l-1.333 17.439c.766.057 1.538.096 2.32.096 1.832 0 3.624-.17 5.368-.478l-3.088-17.22c-.74.132-1.502.203-2.28.203-.332 0-.66-.016-.987-.04"/><g transform="translate(0 42.58)"><mask id="b" fill="#fff"><use xlink:href="#a"/></mask><path fill="#951432" d="M6.296 20.866c.117.182.232.366.352.546L30.39 5.762c-.038-.056-.073-.114-.11-.17L6.296 20.865M0 3.135a40.757 40.757 0 0 0 3.394 12.407L29.374 3.93a12.725 12.725 0 0 1-1.06-3.87L0 3.135" mask="url(#b)"/></g><path fill="#DFB780" d="M2.13 27.469a39.78 39.78 0 0 0-.956 3.054L28.676 37.9c.088-.324.186-.641.297-.954L2.13 27.47"/><path fill="#AD8F60" d="M78.573 58.909a40.731 40.731 0 0 0 2.238-5.775l-27.274-8.175c-.19.622-.424 1.224-.701 1.803l25.737 12.147M3.723 23.624A40.628 40.628 0 0 0 2.59 26.25l26.527 10.317c.11-.279.225-.552.353-.82L3.723 23.624"/><path fill="#602977" d="M38.848.106A41.41 41.41 0 0 0 28.01 2.173l9.047 26.866a12.979 12.979 0 0 1 3.385-.645L38.848.106"/><path fill="#63B44A" d="M50.734 49.877a12.83 12.83 0 0 1-.438.457L83.39 82.96a59.06 59.06 0 0 0 2.214-2.344l-34.87-30.739m25.339 39.314a59.777 59.777 0 0 0 4.53-3.615l-30.914-34.68c-.3.262-.612.51-.937.745l27.321 37.55m10.944-10.205a59.34 59.34 0 0 0 5.988-8.647l-40.66-22.657a13.02 13.02 0 0 1-1.3 1.84l35.972 29.464"/><path fill="#8E7E34" d="M80.981 52.536a40.619 40.619 0 0 0 1.375-7.07l-28.335-2.9a12.741 12.741 0 0 1-.431 2.207l27.391 7.763m-52.5-13.803l-17.25-3.4a30.333 30.333 0 0 0-.581 5.9c0 .043.003.084.003.125l17.582-.11v-.014c0-.856.086-1.691.246-2.5m25.596 2.999l17.568.676c.015-.39.03-.781.03-1.175 0-1.294-.09-2.565-.249-3.816l-17.442 2.199a11.869 11.869 0 0 1 .093 2.116"/><path fill="#50341D" d="M80.81 53.134c.06-.198.114-.399.171-.598L53.59 44.773l-.053.187 27.274 8.174m.409-22.363a40.68 40.68 0 0 0-1.212-3.833l-26.74 9.78c.147.392.277.793.386 1.201l27.567-7.148"/><path fill="#DC3E33" d="M18.159 61.165c.475.54.962 1.069 1.473 1.575L32.02 50.327a13.143 13.143 0 0 1-.622-.672l-13.239 11.51M3.394 58.122a41.165 41.165 0 0 0 2.902 5.325L30.28 48.172a12.861 12.861 0 0 1-.906-1.661L3.394 58.12"/><path fill="#EB8B2D" d="M47.364 81.967a41.262 41.262 0 0 0 15.88-5.891l-15.197-23.96a12.885 12.885 0 0 1-4.957 1.835l4.274 28.016M2.59 26.25c-.16.404-.315.81-.46 1.219l26.843 9.478c.046-.128.094-.254.144-.38L2.59 26.25"/><path fill="#D8127D" d="M24.97 15.51a30.625 30.625 0 0 0-2.89 2.046l10.998 13.647c.39-.312.8-.601 1.224-.867L24.97 15.51m17.038 12.894l1.15-17.453a31.205 31.205 0 0 0-1.995-.072c-.99 0-1.968.052-2.933.143l1.69 17.412c.409-.038.823-.06 1.243-.06.283 0 .565.012.845.03"/><path fill="#66462B" d="M5.434 20.414a40.966 40.966 0 0 0-1.711 3.21L29.47 35.747c.163-.343.342-.677.533-1.003L5.434 20.414M52.85 46.732c-.157.33-.33.654-.516.97l15.352 8.529c.37-.643.72-1.3 1.041-1.971L52.85 46.732"/><path fill="#588D32" d="M82.404 44.845a41.3 41.3 0 0 0 .165-3.445l-28.481-.09c-.003.365-.02.727-.053 1.085l28.37 2.45m-.148-8.618a40.866 40.866 0 0 0-1.036-5.456l-27.567 7.148c.149.557.26 1.13.332 1.713l28.271-3.405m3.348 44.389a58.82 58.82 0 0 0 1.412-1.63L51.044 49.521c-.102.12-.204.24-.31.356l34.87 30.74m-9.471 8.532l-27.349-37.53c-.122.09-.246.178-.372.264l26.364 38.22c.457-.312.908-.63 1.357-.954"/><path fill="#FEDE59" d="M29.221 80.682a41.5 41.5 0 0 0 8.7 1.61l2.468-28.223a12.913 12.913 0 0 1-2.947-.52l-8.22 27.133"/><path fill="#A74E83" d="M12.676 15.228l-2.022-1.843a41.358 41.358 0 0 0-5.22 7.029L29.97 34.802a12.925 12.925 0 0 1 1.712-2.308L12.676 15.228"/><path fill="#065928" d="M82.356 45.465c.022-.208.03-.42.05-.628l-28.369-2.469-.016.197 28.335 2.9M1.173 30.527a40.95 40.95 0 0 0-.635 2.713l27.94 5.509c.056-.285.123-.566.196-.844-10.057-2.695-23.209-6.22-27.5-7.378m9.476 10.71c0 1.177.074 2.335.205 3.477l17.46-2.065c-.051-.463-.08-.934-.08-1.412H10.65m59.51-9.451a30.19 30.19 0 0 0-3.624-7.412l-14.683 9.63a12.78 12.78 0 0 1 1.594 3.226l16.713-5.444"/><path fill="#286AA6" d="M20.318 63.391A30.516 30.516 0 0 0 32.362 70.3l5.06-16.755a12.925 12.925 0 0 1-5.11-2.942L20.318 63.39m32.816-50.082a30.407 30.407 0 0 0-4.866-1.592L44.094 28.71c.721.167 1.42.389 2.09.67l6.95-16.072"/><path fill="#35A0CD" d="M49.658 31.545l.065.056c.414.365.804.756 1.17 1.17l21.6-18.458a41.473 41.473 0 0 0-3.913-3.94l-.004-.003-18.918 21.175"/><path fill="#286AA6" d="M49.658 31.545a12.92 12.92 0 0 0-.882-.702l11.122-15.18 1.96 2.231-12.2 13.65"/></g></svg><svg height="43" width="30" x="4" y="100"><g fill="none" fill-rule="evenodd"><rect width="27.062" height="40" x="1.469" y="1.596" stroke="#FFF" stroke-width="2" rx="13.531"/><rect width="4" height="8" x="13" y="10.596" fill="#FFF" rx="2"/></g></svg><svg height="20" width="20" x="4" y="147"><path fill="#fff" d="M0 6a.5.5 0 0 1 .853-.354l8.646 8.646 8.646-8.646a.5.5 0 0 1 .707.707l-9 9a.5.5 0 0 1-.707 0l-9-9a.498.498 0 0 1-.146-.354z"/></svg><svg height="20" width="20" x="4" y="171"><path fill="#fff" d="M16.218 3.782C14.424 1.988 12.038 1 9.5 1s-4.923.988-6.718 2.782S0 7.962 0 10.499s.988 4.923 2.782 6.718 4.18 2.782 6.718 2.782 4.923-.988 6.718-2.782S19 13.037 19 10.499s-.988-4.923-2.782-6.717zM9.5 19C4.813 19 1 15.187 1 10.5S4.813 2 9.5 2c4.687 0 8.5 3.813 8.5 8.5S14.187 19 9.5 19z"/><path fill="#fff" d="M15.353 10.147l-4-4a.5.5 0 0 0-.707.707L13.793 10H3.5a.5.5 0 0 0 0 1h10.293l-3.146 3.147a.5.5 0 0 0 .706.706l4-4a.5.5 0 0 0 0-.707z"/></svg><svg height="20" width="20" x="4" y="195"><path d="M10 12a.502.502 0 0 1-.194-.039l-9.5-4a.501.501 0 0 1 0-.922l9.5-4a.502.502 0 0 1 .388 0l9.5 4a.501.501 0 0 1 0 .922l-9.5 4A.502.502 0 0 1 10 12zM1.788 7.5L10 10.957 18.212 7.5 10 4.043 1.788 7.5z"/><path d="M10 15a.502.502 0 0 1-.194-.039l-9.5-4a.5.5 0 0 1 .388-.922L10 13.957l9.306-3.918a.5.5 0 1 1 .388.922l-9.5 4A.502.502 0 0 1 10 15z"/><path d="M10 18a.502.502 0 0 1-.194-.039l-9.5-4a.5.5 0 0 1 .388-.922L10 16.957l9.306-3.918a.5.5 0 1 1 .388.922l-9.5 4A.502.502 0 0 1 10 18z"/></svg><svg height="20" width="20" x="4" y="219"><path fill="#fff" d="M17.5 6h-15a.5.5 0 0 1 0-1h15a.5.5 0 0 1 0 1zm0 5h-15a.5.5 0 0 1 0-1h15a.5.5 0 0 1 0 1zm0 5h-15a.5.5 0 0 1 0-1h15a.5.5 0 0 1 0 1z"/></svg><svg height="20" width="20" x="4" y="243"><path fill="#fff" d="M5.5 15h-4C.673 15 0 14.327 0 13.5v-12C0 .673.673 0 1.5 0h14c.827 0 1.5.673 1.5 1.5v7a.5.5 0 0 1-1 0v-7a.5.5 0 0 0-.5-.5h-14a.5.5 0 0 0-.5.5v12a.5.5 0 0 0 .5.5h4a.5.5 0 0 1 0 1z"/><path fill="#fff" d="M13 20a.5.5 0 0 1-.464-.314l-1.697-4.242-2.963 3.386A.5.5 0 0 1 7 18.501v-15a.5.5 0 0 1 .837-.37l11 10a.499.499 0 0 1-.336.87H14.24l1.726 4.314a.5.5 0 0 1-.279.65l-2.5 1a.508.508 0 0 1-.186.036zm-2-6a.5.5 0 0 1 .464.314l1.814 4.536 1.572-.629-1.814-4.536a.499.499 0 0 1 .464-.686h3.707L8 4.629v12.539l2.624-2.999a.501.501 0 0 1 .376-.171z"/></svg></svg>