<svg xmlns="http://www.w3.org/2000/svg" xmlns:xlink="http://www.w3.org/1999/xlink" viewBox="0 0 241 63"><defs><path id="a" d="M240.611 31.036v30.64H.155V.395H240.61z"/></defs><g fill="none" fill-rule="evenodd"><path fill="#201F4B" d="M61.015 1.184v7.6H41.167v9.496H58.37v7.02H41.167v16.98h-9.034V1.184h28.882m5.679 41.096h9.034V1.184h-9.034zm23.44-10.13a6.502 6.502 0 0 0 1.986 2.332c.824.595 1.792 1.035 2.905 1.324a13.68 13.68 0 0 0 3.45.433c.807 0 1.67-.067 2.59-.204a8.968 8.968 0 0 0 2.59-.775 5.651 5.651 0 0 0 2.014-1.585c.538-.672.806-1.525.806-2.56 0-1.113-.356-2.015-1.064-2.705-.71-.69-1.64-1.268-2.791-1.726-1.154-.462-2.455-.863-3.912-1.209a110.53 110.53 0 0 1-4.433-1.151 39.277 39.277 0 0 1-4.486-1.41 15.487 15.487 0 0 1-3.914-2.158 10.18 10.18 0 0 1-2.79-3.31c-.708-1.325-1.063-2.925-1.063-4.808 0-2.107.45-3.942 1.352-5.495a12.225 12.225 0 0 1 3.539-3.885C88.37 2.222 90.018 1.454 91.86.955a21.112 21.112 0 0 1 5.524-.747c2.145 0 4.208.24 6.183.718 1.978.482 3.732 1.258 5.267 2.332a11.831 11.831 0 0 1 3.654 4.114c.9 1.672 1.35 3.694 1.35 6.072h-8.744c-.077-1.226-.337-2.244-.777-3.05-.44-.804-1.025-1.44-1.757-1.899-.726-.46-1.56-.785-2.503-.979a15.472 15.472 0 0 0-3.077-.286c-.727 0-1.458.078-2.184.23a5.78 5.78 0 0 0-1.986.806 5.008 5.008 0 0 0-1.468 1.438c-.384.577-.574 1.306-.574 2.187 0 .806.152 1.458.458 1.955.31.5.91.961 1.813 1.384.902.422 2.15.845 3.742 1.265 1.592.425 3.67.96 6.243 1.612.765.155 1.828.43 3.19.832 1.363.405 2.715 1.049 4.057 1.93 1.344.884 2.503 2.064 3.48 3.54.978 1.478 1.47 3.367 1.47 5.67 0 1.88-.366 3.625-1.095 5.238-.729 1.612-1.81 3-3.25 4.17-1.44 1.173-3.222 2.085-5.351 2.736-2.13.652-4.595.98-7.392.98-2.263 0-4.46-.279-6.59-.835-2.127-.557-4.007-1.43-5.637-2.62-1.63-1.188-2.926-2.705-3.884-4.547-.958-1.84-1.419-4.027-1.383-6.562h8.748c0 1.38.25 2.553.747 3.511M132.88 1.184l9.606 28.261h.118l9.089-28.261h12.714V42.28h-8.455V13.158h-.118L145.769 42.28h-6.966l-10.067-28.836h-.116V42.28h-8.457V1.184h12.717"/><g transform="translate(0 .787)"><mask id="b" fill="#fff"><use xlink:href="#a"/></mask><path fill="#201F4B" d="M193.635 25.608l-5.18-15.079h-.115l-5.352 15.079h10.647zM193.112.397l15.367 41.096h-9.38l-3.103-9.15h-15.364l-3.222 9.15h-9.093L183.854.397h9.258z" mask="url(#b)"/><path fill="#636463" d="M.796 55.237h4.442v.974H1.921v1.687h2.913v.92H1.92v2.857H.796v-6.438m5.346 0h4.633v.974H7.268v1.687h3.245v.92H7.268v1.886h3.569v.971H6.142v-6.438m6.804 5.518h1.108c.44 0 .8-.056 1.079-.175.278-.116.497-.278.656-.487.16-.206.268-.45.325-.731a4.51 4.51 0 0 0 .085-.905c0-.324-.028-.626-.085-.906a1.742 1.742 0 0 0-.325-.73 1.561 1.561 0 0 0-.656-.486c-.278-.119-.639-.178-1.08-.178h-1.107v4.598zm-1.125-5.518h2.665c.492 0 .92.085 1.28.255.363.168.657.397.886.688.227.291.397.634.507 1.025.111.39.168.807.168 1.252 0 .446-.057.864-.168 1.253-.11.391-.28.731-.507 1.025a2.38 2.38 0 0 1-.886.688c-.36.17-.788.252-1.28.252h-2.665v-6.438zm6.505 0h4.633v.974h-3.505v1.687h3.242v.92h-3.242v1.886h3.567v.971h-4.695v-6.438m6.807 2.932h1.849c.358 0 .633-.085.819-.258.185-.17.278-.427.278-.77 0-.204-.028-.371-.09-.5a.703.703 0 0 0-.247-.301.897.897 0 0 0-.361-.147 2.464 2.464 0 0 0-.417-.036h-1.831v2.012zm-1.128-2.932h3.075c.708 0 1.241.155 1.596.461.356.307.53.735.53 1.28 0 .307-.045.562-.136.763a1.587 1.587 0 0 1-.314.487 1.27 1.27 0 0 1-.358.266c-.116.054-.2.09-.255.108v.018c.096.013.201.041.312.09a.91.91 0 0 1 .309.23c.098.105.175.241.24.411.064.168.095.38.095.629 0 .379.028.724.085 1.033.056.31.147.53.268.662h-1.208a1.041 1.041 0 0 1-.152-.458 5.278 5.278 0 0 1-.02-.487 4.64 4.64 0 0 0-.055-.763 1.32 1.32 0 0 0-.198-.53.833.833 0 0 0-.394-.312c-.162-.067-.376-.098-.634-.098h-1.658v2.648h-1.128v-6.438zm7.672 3.877h1.965l-.966-2.766h-.026l-.973 2.766zm.396-3.877h1.198l2.48 6.438h-1.208l-.603-1.703h-2.57l-.605 1.703h-1.161l2.47-6.438zm4.291 0h1.128v5.467h3.27v.971h-4.398v-6.438m7.679 6.438h1.126v-6.438h-1.126zm2.462-6.438h1.19l2.936 4.743h.018v-4.743h1.074v6.438h-1.19l-2.93-4.732h-.026v4.732h-1.072v-6.438m6.552 0H57.5v.974h-3.317v1.687h2.912v.92h-2.912v2.857h-1.126v-6.438m8.084.768c-.342 0-.639.07-.886.206a1.76 1.76 0 0 0-.61.556c-.155.23-.27.495-.348.789a3.65 3.65 0 0 0 0 1.803c.077.294.193.557.348.788.157.232.36.418.61.557.247.137.544.206.886.206.343 0 .639-.07.889-.206.25-.14.453-.325.607-.557.158-.231.273-.494.348-.788a3.65 3.65 0 0 0 0-1.803 2.458 2.458 0 0 0-.348-.789 1.73 1.73 0 0 0-.607-.556 1.826 1.826 0 0 0-.889-.206zm0-.92c.482 0 .914.09 1.293.27.384.181.708.423.97.732.266.307.47.662.609 1.072.141.41.21.842.21 1.298 0 .464-.069.897-.21 1.307-.14.41-.343.767-.608 1.074a2.785 2.785 0 0 1-.971.724 3.013 3.013 0 0 1-1.293.268c-.479 0-.909-.09-1.293-.268a2.823 2.823 0 0 1-.968-.724 3.236 3.236 0 0 1-.608-1.074 3.893 3.893 0 0 1-.214-1.307c0-.456.07-.888.214-1.298.142-.41.343-.765.608-1.072a2.87 2.87 0 0 1 .968-.731 3 3 0 0 1 1.293-.27zm5.239 3.084h1.846c.363 0 .633-.085.819-.258.19-.17.283-.427.283-.77 0-.204-.03-.371-.09-.5a.727.727 0 0 0-.25-.301.897.897 0 0 0-.36-.147 2.448 2.448 0 0 0-.42-.036h-1.829v2.012zm-1.126-2.932h3.072c.711 0 1.242.155 1.594.461.356.307.534.735.534 1.28 0 .307-.044.562-.134.763-.09.201-.196.364-.317.487-.119.121-.24.211-.355.266a3.01 3.01 0 0 1-.258.108v.018c.095.013.198.041.309.09a.895.895 0 0 1 .312.23 1.2 1.2 0 0 1 .24.411c.064.168.094.38.094.629 0 .379.029.724.088 1.033.054.31.144.53.263.662h-1.208a1.07 1.07 0 0 1-.147-.458 5.301 5.301 0 0 1-.023-.487c0-.297-.018-.549-.052-.763a1.36 1.36 0 0 0-.2-.53.852.852 0 0 0-.392-.312c-.165-.067-.376-.098-.636-.098h-1.659v2.648h-1.125v-6.438zm6.325 0h1.586l1.777 5.042h.016l1.733-5.042h1.568v6.438h-1.07v-4.967h-.019l-1.787 4.967h-.927l-1.785-4.967h-.018v4.967h-1.074v-6.438m9.356 3.877H82.9l-.966-2.766h-.023l-.976 2.766zm.397-3.877h1.203l2.474 6.438h-1.207l-.603-1.703H80.63l-.607 1.703h-1.162l2.47-6.438zm2.848 0h5.21v.974h-2.045v5.464H86.22v-5.464h-2.04v-.974m5.957 6.438h1.128v-6.438h-1.128zm5.246-5.67c-.343 0-.639.07-.889.206a1.79 1.79 0 0 0-.607.556c-.155.23-.27.495-.348.789a3.65 3.65 0 0 0 0 1.803c.077.294.193.557.348.788.157.232.36.418.607.557.25.137.546.206.889.206.342 0 .639-.07.888-.206.25-.14.454-.325.608-.557a2.48 2.48 0 0 0 .348-.788 3.65 3.65 0 0 0 0-1.803 2.458 2.458 0 0 0-.348-.789 1.73 1.73 0 0 0-.608-.556 1.826 1.826 0 0 0-.888-.206zm0-.92c.481 0 .912.09 1.293.27.383.181.703.423.97.732.266.307.467.662.606 1.072.144.41.214.842.214 1.298 0 .464-.07.897-.214 1.307-.14.41-.34.767-.605 1.074a2.833 2.833 0 0 1-.971.724 3.021 3.021 0 0 1-1.293.268 3.03 3.03 0 0 1-1.293-.268 2.833 2.833 0 0 1-.97-.724 3.328 3.328 0 0 1-.609-1.074 3.957 3.957 0 0 1-.21-1.307c0-.456.069-.888.21-1.298.145-.41.345-.765.608-1.072.265-.309.59-.551.971-.731.381-.18.814-.27 1.293-.27zm4.064.152h1.192l2.939 4.743h.018v-4.743h1.074v6.438h-1.19l-2.931-4.732h-.028v4.732h-1.074v-6.438m9.799 4.293c0 .247.044.458.126.63.085.176.201.32.35.43.152.111.325.191.52.243.196.051.407.077.637.077.244 0 .456-.028.63-.085.173-.06.315-.131.423-.222a.8.8 0 0 0 .234-.311.914.914 0 0 0 .072-.356c0-.247-.054-.427-.164-.546a.98.98 0 0 0-.366-.247 7.996 7.996 0 0 0-.798-.24 49.319 49.319 0 0 1-1.123-.294 2.339 2.339 0 0 1-.69-.283 1.632 1.632 0 0 1-.438-.391 1.34 1.34 0 0 1-.227-.46 1.81 1.81 0 0 1-.07-.496c0-.325.07-.606.204-.843.134-.237.314-.435.536-.59a2.34 2.34 0 0 1 .757-.347c.283-.078.569-.114.855-.114.337 0 .654.044.953.132.298.085.559.216.783.391.226.175.404.39.538.644.131.258.196.552.196.889h-1.126c-.03-.415-.172-.708-.422-.878-.253-.173-.574-.258-.963-.258-.134 0-.27.013-.41.041a1.28 1.28 0 0 0-.376.134.824.824 0 0 0-.283.258.681.681 0 0 0-.113.404c0 .23.07.41.21.539.14.128.328.226.554.29.024.008.119.032.286.078.163.046.35.095.554.15.203.054.404.108.598.157.195.051.334.09.42.113a1.764 1.764 0 0 1 .943.662 1.705 1.705 0 0 1 .312.979c-.002.36-.076.67-.223.925-.147.255-.34.464-.582.626-.24.162-.513.28-.819.355a3.96 3.96 0 0 1-1.975-.023 2.407 2.407 0 0 1-.848-.412 2.042 2.042 0 0 1-.576-.719 2.452 2.452 0 0 1-.227-1.033h1.128m5.099-4.292h4.636v.974h-3.508v1.687h3.248v.92h-3.248v1.886h3.572v.971h-4.7v-6.438m10.025 2.048a2.383 2.383 0 0 0-.197-.512 1.35 1.35 0 0 0-.325-.407 1.428 1.428 0 0 0-.466-.266 1.786 1.786 0 0 0-.616-.095c-.342 0-.638.07-.888.206-.247.14-.453.325-.608.556-.157.23-.273.495-.347.789a3.65 3.65 0 0 0 0 1.803c.074.294.19.557.347.788.155.232.36.418.608.557.25.137.546.206.888.206.253 0 .474-.044.667-.131.194-.085.356-.206.495-.361a1.65 1.65 0 0 0 .324-.536 2.5 2.5 0 0 0 .155-.66h1.097c-.02.387-.106.737-.245 1.057a2.593 2.593 0 0 1-.574.824c-.24.232-.523.41-.847.536-.325.129-.683.19-1.072.19a3.02 3.02 0 0 1-1.292-.267 2.833 2.833 0 0 1-.971-.724 3.236 3.236 0 0 1-.608-1.074 3.957 3.957 0 0 1-.211-1.307c0-.456.07-.888.211-1.298a3.22 3.22 0 0 1 .608-1.072c.265-.309.59-.551.97-.731.38-.18.812-.27 1.293-.27.361 0 .698.048 1.018.146.32.1.6.245.844.435.243.188.438.42.59.688.15.273.245.582.278.93h-1.125m2.091-2.048h1.128v3.751c0 .217.01.436.031.66.02.221.082.422.18.6.098.178.25.322.451.438.2.113.484.17.852.17.366 0 .65-.057.853-.17.2-.116.35-.26.45-.438.098-.178.158-.379.178-.6.023-.224.034-.443.034-.66v-3.75h1.125v4.121c0 .415-.062.776-.188 1.082a2.099 2.099 0 0 1-1.37 1.234 3.562 3.562 0 0 1-1.082.155 3.56 3.56 0 0 1-1.081-.155 2.2 2.2 0 0 1-.835-.464 2.063 2.063 0 0 1-.535-.77 2.83 2.83 0 0 1-.19-1.082v-4.122m7.707 2.932h1.847c.36 0 .636-.085.821-.258.186-.17.278-.427.278-.77 0-.204-.03-.371-.087-.5a.708.708 0 0 0-.25-.301.917.917 0 0 0-.358-.147 2.518 2.518 0 0 0-.42-.036h-1.83v2.012zm-1.128-2.932h3.078c.705 0 1.238.155 1.594.461.353.307.53.735.53 1.28 0 .307-.046.562-.134.763-.09.201-.195.364-.316.487-.121.121-.24.211-.356.266a3.01 3.01 0 0 1-.257.108v.018c.098.013.2.041.311.09a.943.943 0 0 1 .312.23c.095.105.175.241.24.411.061.168.092.38.092.629 0 .379.028.724.085 1.033.057.31.147.53.265.662h-1.205a1.007 1.007 0 0 1-.15-.458 5.301 5.301 0 0 1-.022-.487 4.64 4.64 0 0 0-.055-.763 1.284 1.284 0 0 0-.198-.53.84.84 0 0 0-.391-.312c-.165-.067-.376-.098-.636-.098h-1.659v2.648h-1.128v-6.438zm6.346 6.438h1.128v-6.438h-1.128zm1.892-6.438h5.21v.974h-2.044v5.464h-1.128v-5.464h-2.037v-.974m7.633 3.913l-2.416-3.913h1.309l1.704 2.886 1.674-2.886h1.262l-2.405 3.913v2.525h-1.128V59.15m6.649-3.913h1.587l1.777 5.042h.018l1.73-5.042h1.569v6.438h-1.074v-4.967h-.018l-1.782 4.967h-.927l-1.788-4.967h-.018v4.967h-1.074v-6.438m9.357 3.877h1.967l-.966-2.766h-.028l-.973 2.766zm.396-3.877h1.2l2.478 6.438h-1.208l-.603-1.703h-2.57l-.602 1.703h-1.165l2.47-6.438zm4.247 0h1.192l2.936 4.743h.018v-4.743h1.074v6.438h-1.19l-2.928-4.732h-.028v4.732h-1.074v-6.438m7.878 3.877h1.968l-.966-2.766h-.029l-.973 2.766zm.4-3.877h1.2l2.474 6.438h-1.205l-.605-1.703h-2.57l-.603 1.703h-1.162l2.47-6.438zm9.901 6.438h-.72l-.17-.757c-.3.342-.603.582-.902.713a2.568 2.568 0 0 1-1.035.199c-.482 0-.915-.09-1.293-.268a2.785 2.785 0 0 1-.971-.724 3.192 3.192 0 0 1-.608-1.074 3.958 3.958 0 0 1-.214-1.307c0-.456.072-.888.214-1.298.14-.41.343-.765.608-1.072.263-.309.587-.551.97-.731.38-.18.812-.27 1.294-.27.347 0 .677.046.994.138.316.093.597.232.844.415.245.186.448.415.613.69.16.276.263.596.307.956h-1.102a1.375 1.375 0 0 0-.564-.955 1.592 1.592 0 0 0-.508-.243 1.992 1.992 0 0 0-.584-.082c-.343 0-.64.07-.889.206a1.73 1.73 0 0 0-.608.556c-.157.23-.273.495-.347.789a3.65 3.65 0 0 0 0 1.803c.074.294.19.557.347.788.155.232.358.418.608.557.25.137.546.206.889.206.288.008.543-.03.764-.113.225-.08.413-.199.562-.35a1.47 1.47 0 0 0 .348-.565c.077-.221.12-.469.128-.74h-1.712v-.855h2.737v3.388m1.226-6.438h4.636v.974h-3.508v1.687h3.245v.92h-3.245v1.886h3.57v.971h-4.698v-6.438m5.661 0h1.586l1.777 5.042h.018l1.73-5.042h1.57v6.438h-1.075v-4.967h-.018l-1.782 4.967h-.93l-1.784-4.967h-.018v4.967h-1.074v-6.438m8.03 0h4.635v.974h-3.507v1.687h3.247v.92h-3.247v1.886h3.572v.971h-4.7v-6.438m5.635 0h1.192l2.936 4.743h.018v-4.743h1.074v6.438h-1.19l-2.928-4.732h-.029v4.732h-1.073v-6.438m5.941 0h5.21v.974H217.4v5.464h-1.125v-5.464h-2.04v-.974m9.786 3.877h1.968l-.966-2.766h-.028l-.974 2.766zm.4-3.877h1.197l2.477 6.438h-1.205l-.605-1.703h-2.57l-.603 1.703h-1.161l2.47-6.438zm8.634 2.048a2.257 2.257 0 0 0-.198-.512 1.35 1.35 0 0 0-.324-.407 1.428 1.428 0 0 0-.467-.266 1.786 1.786 0 0 0-.615-.095c-.343 0-.639.07-.888.206-.248.14-.451.325-.608.556-.157.23-.27.495-.348.789a3.65 3.65 0 0 0 0 1.803c.077.294.19.557.348.788.157.232.36.418.607.557.25.137.546.206.889.206a1.6 1.6 0 0 0 .667-.131 1.41 1.41 0 0 0 .494-.361c.14-.152.248-.332.325-.536.077-.203.131-.422.154-.66h1.1a3.026 3.026 0 0 1-.247 1.057 2.593 2.593 0 0 1-.574.824 2.51 2.51 0 0 1-.848.536c-.324.129-.682.19-1.071.19a3.03 3.03 0 0 1-1.293-.267 2.833 2.833 0 0 1-.97-.724 3.282 3.282 0 0 1-.609-1.074 3.957 3.957 0 0 1-.21-1.307c0-.456.069-.888.21-1.298a3.27 3.27 0 0 1 .608-1.072c.266-.309.59-.551.971-.731.381-.18.814-.27 1.293-.27.36 0 .7.048 1.02.146.32.1.597.245.842.435.242.188.44.42.59.688.15.273.244.582.28.93h-1.128m1.553-2.048h5.208v.974h-2.045v5.464h-1.126v-5.464h-2.037v-.974" mask="url(#b)"/><path stroke="#636463" stroke-width=".5" d="M0 49.108h240.611" mask="url(#b)"/></g></g></svg>